<svg xmlns="http://www.w3.org/2000/svg" xmlns:dc="http://purl.org/dc/elements/1.1/" xmlns:ns2="http://creativecommons.org/ns#" xmlns:rdf="http://www.w3.org/1999/02/22-rdf-syntax-ns#" xmlns:xlink="http://www.w3.org/1999/xlink" width="300.0" height="519.6" viewBox="0.0 0.0 300.0 519.0">
<g id="graph0" class="graph" transform="scale(1.2 1.2) rotate(0) translate(4 428.5)">
<title>G</title>
<polygon fill="white" stroke="transparent" points="-4,4 -4,-428.5 246,-428.5 246,4 -4,4" />
<g id="clust4" class="cluster">
<title>cluster_legend</title>
</g>

<g id="node1" class="node">
<title>node2</title>
<svg width="150px" height="46px" viewBox="0 0 200.0375 62.208661" version="1.1" preserveAspectRatio="xMinYMin meet" x="4" y="-69.5">
 <metadata>
  <rdf:RDF>
   <ns2:Work>
    <dc:type rdf:resource="http://purl.org/dc/dcmitype/StillImage" />
    <dc:date>2024-07-15T17:18:33.498034</dc:date>
    <dc:format>image/svg+xml</dc:format>
    <dc:creator>
     <ns2:Agent>
      <dc:title>Matplotlib v3.8.4, https://matplotlib.org/</dc:title>
     </ns2:Agent>
    </dc:creator>
   </ns2:Work>
  </rdf:RDF>
 </metadata>
 <defs>
  <style type="text/css">*{stroke-linejoin: round; stroke-linecap: butt}</style>
 </defs>
 <g id="figure_1">
  <g id="patch_1">
   <path d="M 0 62.208661  L 200.0375 62.208661  L 200.0375 0  L 0 0  z " style="fill: #ffffff" />
  </g>
  <g id="axes_1">
   <g id="patch_2">
    <path d="M 15.8975 31.777411  L 200.0375 31.777411  L 200.0375 1.417411  L 15.8975 1.417411  z " style="fill: #ffffff" />
   </g>
   <g id="matplotlib.axis_1">
    <g id="xtick_1">
     <g id="line2d_1" />
     <g id="text_1">
      
      <g style="fill: #444443" transform="translate(24.125299 45.503661) scale(0.08 -0.08)">
       <defs>
        <path id="ArialMT-30" d="M 266 2259  Q 266 3072 433 3567  Q 600 4063 929 4331  Q 1259 4600 1759 4600  Q 2128 4600 2406 4451  Q 2684 4303 2865 4023  Q 3047 3744 3150 3342  Q 3253 2941 3253 2259  Q 3253 1453 3087 958  Q 2922 463 2592 192  Q 2263 -78 1759 -78  Q 1097 -78 719 397  Q 266 969 266 2259  z M 844 2259  Q 844 1131 1108 757  Q 1372 384 1759 384  Q 2147 384 2411 759  Q 2675 1134 2675 2259  Q 2675 3391 2411 3762  Q 2147 4134 1753 4134  Q 1366 4134 1134 3806  Q 844 3388 844 2259  z " transform="scale(0.015625)" />
        <path id="ArialMT-2e" d="M 581 0  L 581 641  L 1222 641  L 1222 0  L 581 0  z " transform="scale(0.015625)" />
        <path id="ArialMT-38" d="M 1131 2484  Q 781 2613 612 2850  Q 444 3088 444 3419  Q 444 3919 803 4259  Q 1163 4600 1759 4600  Q 2359 4600 2725 4251  Q 3091 3903 3091 3403  Q 3091 3084 2923 2848  Q 2756 2613 2416 2484  Q 2838 2347 3058 2040  Q 3278 1734 3278 1309  Q 3278 722 2862 322  Q 2447 -78 1769 -78  Q 1091 -78 675 323  Q 259 725 259 1325  Q 259 1772 486 2073  Q 713 2375 1131 2484  z M 1019 3438  Q 1019 3113 1228 2906  Q 1438 2700 1772 2700  Q 2097 2700 2305 2904  Q 2513 3109 2513 3406  Q 2513 3716 2298 3927  Q 2084 4138 1766 4138  Q 1444 4138 1231 3931  Q 1019 3725 1019 3438  z M 838 1322  Q 838 1081 952 856  Q 1066 631 1291 507  Q 1516 384 1775 384  Q 2178 384 2440 643  Q 2703 903 2703 1303  Q 2703 1709 2433 1975  Q 2163 2241 1756 2241  Q 1359 2241 1098 1978  Q 838 1716 838 1322  z " transform="scale(0.015625)" />
        <path id="ArialMT-33" d="M 269 1209  L 831 1284  Q 928 806 1161 595  Q 1394 384 1728 384  Q 2125 384 2398 659  Q 2672 934 2672 1341  Q 2672 1728 2419 1979  Q 2166 2231 1775 2231  Q 1616 2231 1378 2169  L 1441 2663  Q 1497 2656 1531 2656  Q 1891 2656 2178 2843  Q 2466 3031 2466 3422  Q 2466 3731 2256 3934  Q 2047 4138 1716 4138  Q 1388 4138 1169 3931  Q 950 3725 888 3313  L 325 3413  Q 428 3978 793 4289  Q 1159 4600 1703 4600  Q 2078 4600 2393 4439  Q 2709 4278 2876 4000  Q 3044 3722 3044 3409  Q 3044 3113 2884 2869  Q 2725 2625 2413 2481  Q 2819 2388 3044 2092  Q 3269 1797 3269 1353  Q 3269 753 2831 336  Q 2394 -81 1725 -81  Q 1122 -81 723 278  Q 325 638 269 1209  z " transform="scale(0.015625)" />
       </defs>
       <use xlink:href="#ArialMT-30" />
       <use xlink:href="#ArialMT-2e" x="55.615234" />
       <use xlink:href="#ArialMT-38" x="83.398438" />
       <use xlink:href="#ArialMT-33" x="139.013672" />
      </g>
     </g>
    </g>
    <g id="xtick_2">
     <g id="line2d_2" />
     <g id="text_2">
      
      <g style="fill: #444443" transform="translate(58.038417 45.503661) scale(0.08 -0.08)">
       <defs>
        <path id="ArialMT-31" d="M 2384 0  L 1822 0  L 1822 3584  Q 1619 3391 1289 3197  Q 959 3003 697 2906  L 697 3450  Q 1169 3672 1522 3987  Q 1875 4303 2022 4600  L 2384 4600  L 2384 0  z " transform="scale(0.015625)" />
        <path id="ArialMT-37" d="M 303 3981  L 303 4522  L 3269 4522  L 3269 4084  Q 2831 3619 2401 2847  Q 1972 2075 1738 1259  Q 1569 684 1522 0  L 944 0  Q 953 541 1156 1306  Q 1359 2072 1739 2783  Q 2119 3494 2547 3981  L 303 3981  z " transform="scale(0.015625)" />
        <path id="ArialMT-35" d="M 266 1200  L 856 1250  Q 922 819 1161 601  Q 1400 384 1738 384  Q 2144 384 2425 690  Q 2706 997 2706 1503  Q 2706 1984 2436 2262  Q 2166 2541 1728 2541  Q 1456 2541 1237 2417  Q 1019 2294 894 2097  L 366 2166  L 809 4519  L 3088 4519  L 3088 3981  L 1259 3981  L 1013 2750  Q 1425 3038 1878 3038  Q 2478 3038 2890 2622  Q 3303 2206 3303 1553  Q 3303 931 2941 478  Q 2500 -78 1738 -78  Q 1113 -78 717 272  Q 322 622 266 1200  z " transform="scale(0.015625)" />
       </defs>
       <use xlink:href="#ArialMT-31" />
       <use xlink:href="#ArialMT-37" x="55.615234" />
       <use xlink:href="#ArialMT-2e" x="111.230469" />
       <use xlink:href="#ArialMT-35" x="139.013672" />
       <use xlink:href="#ArialMT-30" x="194.628906" />
      </g>
     </g>
    </g>
    <g id="xtick_3">
     <g id="line2d_3" />
     <g id="text_3">
      
      <g style="fill: #444443" transform="translate(174.016576 45.503661) scale(0.08 -0.08)">
       <use xlink:href="#ArialMT-37" />
       <use xlink:href="#ArialMT-31" x="55.615234" />
       <use xlink:href="#ArialMT-2e" x="111.230469" />
       <use xlink:href="#ArialMT-30" x="139.013672" />
       <use xlink:href="#ArialMT-30" x="194.628906" />
      </g>
     </g>
    </g>
    <g id="text_4">
     
     <g style="fill: #444443" transform="translate(97.292187 59.683036) scale(0.12 -0.12)">
      <defs>
       <path id="ArialMT-41" d="M -9 0  L 1750 4581  L 2403 4581  L 4278 0  L 3588 0  L 3053 1388  L 1138 1388  L 634 0  L -9 0  z M 1313 1881  L 2866 1881  L 2388 3150  Q 2169 3728 2063 4100  Q 1975 3659 1816 3225  L 1313 1881  z " transform="scale(0.015625)" />
       <path id="ArialMT-67" d="M 319 -275  L 866 -356  Q 900 -609 1056 -725  Q 1266 -881 1628 -881  Q 2019 -881 2231 -725  Q 2444 -569 2519 -288  Q 2563 -116 2559 434  Q 2191 0 1641 0  Q 956 0 581 494  Q 206 988 206 1678  Q 206 2153 378 2554  Q 550 2956 876 3175  Q 1203 3394 1644 3394  Q 2231 3394 2613 2919  L 2613 3319  L 3131 3319  L 3131 450  Q 3131 -325 2973 -648  Q 2816 -972 2473 -1159  Q 2131 -1347 1631 -1347  Q 1038 -1347 672 -1080  Q 306 -813 319 -275  z M 784 1719  Q 784 1066 1043 766  Q 1303 466 1694 466  Q 2081 466 2343 764  Q 2606 1063 2606 1700  Q 2606 2309 2336 2618  Q 2066 2928 1684 2928  Q 1309 2928 1046 2623  Q 784 2319 784 1719  z " transform="scale(0.015625)" />
       <path id="ArialMT-65" d="M 2694 1069  L 3275 997  Q 3138 488 2766 206  Q 2394 -75 1816 -75  Q 1088 -75 661 373  Q 234 822 234 1631  Q 234 2469 665 2931  Q 1097 3394 1784 3394  Q 2450 3394 2872 2941  Q 3294 2488 3294 1666  Q 3294 1616 3291 1516  L 816 1516  Q 847 969 1125 678  Q 1403 388 1819 388  Q 2128 388 2347 550  Q 2566 713 2694 1069  z M 847 1978  L 2700 1978  Q 2663 2397 2488 2606  Q 2219 2931 1791 2931  Q 1403 2931 1139 2672  Q 875 2413 847 1978  z " transform="scale(0.015625)" />
      </defs>
      <use xlink:href="#ArialMT-41" />
      <use xlink:href="#ArialMT-67" x="66.699219" />
      <use xlink:href="#ArialMT-65" x="122.314453" />
     </g>
    </g>
   </g>
   <g id="matplotlib.axis_2">
    <g id="ytick_1">
     <g id="line2d_4" />
     <g id="text_5">
      
      <g style="fill: #444443" transform="translate(4.44875 34.640536) scale(0.08 -0.08)">
       <use xlink:href="#ArialMT-30" />
      </g>
     </g>
    </g>
    <g id="ytick_2">
     <g id="line2d_5" />
     <g id="text_6">
      
      <g style="fill: #444443" transform="translate(0 5.72625) scale(0.08 -0.08)">
       <use xlink:href="#ArialMT-31" />
       <use xlink:href="#ArialMT-30" x="55.615234" />
      </g>
     </g>
    </g>
   </g>
   <g id="patch_3">
    <path d="M 31.909674 31.777411  L 39.915761 31.777411  L 39.915761 31.777411  L 31.909674 31.777411  z " clip-path="url(#p2a74c09716)" style="fill: #fefebb; stroke: #444443; stroke-width: 0.5; stroke-linejoin: miter" />
   </g>
   <g id="patch_4">
    <path d="M 39.915761 31.777411  L 47.921848 31.777411  L 47.921848 31.777411  L 39.915761 31.777411  z " clip-path="url(#p2a74c09716)" style="fill: #fefebb; stroke: #444443; stroke-width: 0.5; stroke-linejoin: miter" />
   </g>
   <g id="patch_5">
    <path d="M 47.921848 31.777411  L 55.927935 31.777411  L 55.927935 31.777411  L 47.921848 31.777411  z " clip-path="url(#p2a74c09716)" style="fill: #fefebb; stroke: #444443; stroke-width: 0.5; stroke-linejoin: miter" />
   </g>
   <g id="patch_6">
    <path d="M 55.927935 31.777411  L 63.934022 31.777411  L 63.934022 31.777411  L 55.927935 31.777411  z " clip-path="url(#p2a74c09716)" style="fill: #fefebb; stroke: #444443; stroke-width: 0.5; stroke-linejoin: miter" />
   </g>
   <g id="patch_7">
    <path d="M 63.934022 31.777411  L 71.940109 31.777411  L 71.940109 23.103125  L 63.934022 23.103125  z " clip-path="url(#p2a74c09716)" style="fill: #fefebb; stroke: #444443; stroke-width: 0.5; stroke-linejoin: miter" />
   </g>
   <g id="patch_8">
    <path d="M 71.940109 31.777411  L 79.946196 31.777411  L 79.946196 23.103125  L 71.940109 23.103125  z " clip-path="url(#p2a74c09716)" style="fill: #fefebb; stroke: #444443; stroke-width: 0.5; stroke-linejoin: miter" />
   </g>
   <g id="patch_9">
    <path d="M 79.946196 31.777411  L 87.952283 31.777411  L 87.952283 17.320268  L 79.946196 17.320268  z " clip-path="url(#p2a74c09716)" style="fill: #fefebb; stroke: #444443; stroke-width: 0.5; stroke-linejoin: miter" />
   </g>
   <g id="patch_10">
    <path d="M 87.952283 31.777411  L 95.95837 31.777411  L 95.95837 20.211696  L 87.952283 20.211696  z " clip-path="url(#p2a74c09716)" style="fill: #fefebb; stroke: #444443; stroke-width: 0.5; stroke-linejoin: miter" />
   </g>
   <g id="patch_11">
    <path d="M 95.95837 31.777411  L 103.964457 31.777411  L 103.964457 23.103125  L 95.95837 23.103125  z " clip-path="url(#p2a74c09716)" style="fill: #fefebb; stroke: #444443; stroke-width: 0.5; stroke-linejoin: miter" />
   </g>
   <g id="patch_12">
    <path d="M 103.964457 31.777411  L 111.970543 31.777411  L 111.970543 23.103125  L 103.964457 23.103125  z " clip-path="url(#p2a74c09716)" style="fill: #fefebb; stroke: #444443; stroke-width: 0.5; stroke-linejoin: miter" />
   </g>
   <g id="patch_13">
    <path d="M 111.970543 31.777411  L 119.97663 31.777411  L 119.97663 31.777411  L 111.970543 31.777411  z " clip-path="url(#p2a74c09716)" style="fill: #fefebb; stroke: #444443; stroke-width: 0.5; stroke-linejoin: miter" />
   </g>
   <g id="patch_14">
    <path d="M 119.97663 31.777411  L 127.982717 31.777411  L 127.982717 31.777411  L 119.97663 31.777411  z " clip-path="url(#p2a74c09716)" style="fill: #fefebb; stroke: #444443; stroke-width: 0.5; stroke-linejoin: miter" />
   </g>
   <g id="patch_15">
    <path d="M 127.982717 31.777411  L 135.988804 31.777411  L 135.988804 31.777411  L 127.982717 31.777411  z " clip-path="url(#p2a74c09716)" style="fill: #fefebb; stroke: #444443; stroke-width: 0.5; stroke-linejoin: miter" />
   </g>
   <g id="patch_16">
    <path d="M 135.988804 31.777411  L 143.994891 31.777411  L 143.994891 31.777411  L 135.988804 31.777411  z " clip-path="url(#p2a74c09716)" style="fill: #fefebb; stroke: #444443; stroke-width: 0.5; stroke-linejoin: miter" />
   </g>
   <g id="patch_17">
    <path d="M 143.994891 31.777411  L 152.000978 31.777411  L 152.000978 31.777411  L 143.994891 31.777411  z " clip-path="url(#p2a74c09716)" style="fill: #fefebb; stroke: #444443; stroke-width: 0.5; stroke-linejoin: miter" />
   </g>
   <g id="patch_18">
    <path d="M 152.000978 31.777411  L 160.007065 31.777411  L 160.007065 31.777411  L 152.000978 31.777411  z " clip-path="url(#p2a74c09716)" style="fill: #fefebb; stroke: #444443; stroke-width: 0.5; stroke-linejoin: miter" />
   </g>
   <g id="patch_19">
    <path d="M 160.007065 31.777411  L 168.013152 31.777411  L 168.013152 31.777411  L 160.007065 31.777411  z " clip-path="url(#p2a74c09716)" style="fill: #fefebb; stroke: #444443; stroke-width: 0.5; stroke-linejoin: miter" />
   </g>
   <g id="patch_20">
    <path d="M 168.013152 31.777411  L 176.019239 31.777411  L 176.019239 31.777411  L 168.013152 31.777411  z " clip-path="url(#p2a74c09716)" style="fill: #fefebb; stroke: #444443; stroke-width: 0.5; stroke-linejoin: miter" />
   </g>
   <g id="patch_21">
    <path d="M 176.019239 31.777411  L 184.025326 31.777411  L 184.025326 31.777411  L 176.019239 31.777411  z " clip-path="url(#p2a74c09716)" style="fill: #fefebb; stroke: #444443; stroke-width: 0.5; stroke-linejoin: miter" />
   </g>
   <g id="patch_22">
    <path d="M 31.909674 31.777411  L 39.915761 31.777411  L 39.915761 25.994554  L 31.909674 25.994554  z " clip-path="url(#p2a74c09716)" style="fill: #a1dab4; stroke: #444443; stroke-width: 0.5; stroke-linejoin: miter" />
   </g>
   <g id="patch_23">
    <path d="M 39.915761 31.777411  L 47.921848 31.777411  L 47.921848 28.885982  L 39.915761 28.885982  z " clip-path="url(#p2a74c09716)" style="fill: #a1dab4; stroke: #444443; stroke-width: 0.5; stroke-linejoin: miter" />
   </g>
   <g id="patch_24">
    <path d="M 47.921848 31.777411  L 55.927935 31.777411  L 55.927935 31.777411  L 47.921848 31.777411  z " clip-path="url(#p2a74c09716)" style="fill: #a1dab4; stroke: #444443; stroke-width: 0.5; stroke-linejoin: miter" />
   </g>
   <g id="patch_25">
    <path d="M 55.927935 31.777411  L 63.934022 31.777411  L 63.934022 28.885982  L 55.927935 28.885982  z " clip-path="url(#p2a74c09716)" style="fill: #a1dab4; stroke: #444443; stroke-width: 0.5; stroke-linejoin: miter" />
   </g>
   <g id="patch_26">
    <path d="M 63.934022 23.103125  L 71.940109 23.103125  L 71.940109 17.320268  L 63.934022 17.320268  z " clip-path="url(#p2a74c09716)" style="fill: #a1dab4; stroke: #444443; stroke-width: 0.5; stroke-linejoin: miter" />
   </g>
   <g id="patch_27">
    <path d="M 71.940109 23.103125  L 79.946196 23.103125  L 79.946196 17.320268  L 71.940109 17.320268  z " clip-path="url(#p2a74c09716)" style="fill: #a1dab4; stroke: #444443; stroke-width: 0.5; stroke-linejoin: miter" />
   </g>
   <g id="patch_28">
    <path d="M 79.946196 17.320268  L 87.952283 17.320268  L 87.952283 2.863125  L 79.946196 2.863125  z " clip-path="url(#p2a74c09716)" style="fill: #a1dab4; stroke: #444443; stroke-width: 0.5; stroke-linejoin: miter" />
   </g>
   <g id="patch_29">
    <path d="M 87.952283 20.211696  L 95.95837 20.211696  L 95.95837 8.645982  L 87.952283 8.645982  z " clip-path="url(#p2a74c09716)" style="fill: #a1dab4; stroke: #444443; stroke-width: 0.5; stroke-linejoin: miter" />
   </g>
   <g id="patch_30">
    <path d="M 95.95837 23.103125  L 103.964457 23.103125  L 103.964457 14.428839  L 95.95837 14.428839  z " clip-path="url(#p2a74c09716)" style="fill: #a1dab4; stroke: #444443; stroke-width: 0.5; stroke-linejoin: miter" />
   </g>
   <g id="patch_31">
    <path d="M 103.964457 23.103125  L 111.970543 23.103125  L 111.970543 20.211696  L 103.964457 20.211696  z " clip-path="url(#p2a74c09716)" style="fill: #a1dab4; stroke: #444443; stroke-width: 0.5; stroke-linejoin: miter" />
   </g>
   <g id="patch_32">
    <path d="M 111.970543 31.777411  L 119.97663 31.777411  L 119.97663 25.994554  L 111.970543 25.994554  z " clip-path="url(#p2a74c09716)" style="fill: #a1dab4; stroke: #444443; stroke-width: 0.5; stroke-linejoin: miter" />
   </g>
   <g id="patch_33">
    <path d="M 119.97663 31.777411  L 127.982717 31.777411  L 127.982717 31.777411  L 119.97663 31.777411  z " clip-path="url(#p2a74c09716)" style="fill: #a1dab4; stroke: #444443; stroke-width: 0.5; stroke-linejoin: miter" />
   </g>
   <g id="patch_34">
    <path d="M 127.982717 31.777411  L 135.988804 31.777411  L 135.988804 31.777411  L 127.982717 31.777411  z " clip-path="url(#p2a74c09716)" style="fill: #a1dab4; stroke: #444443; stroke-width: 0.5; stroke-linejoin: miter" />
   </g>
   <g id="patch_35">
    <path d="M 135.988804 31.777411  L 143.994891 31.777411  L 143.994891 31.777411  L 135.988804 31.777411  z " clip-path="url(#p2a74c09716)" style="fill: #a1dab4; stroke: #444443; stroke-width: 0.5; stroke-linejoin: miter" />
   </g>
   <g id="patch_36">
    <path d="M 143.994891 31.777411  L 152.000978 31.777411  L 152.000978 31.777411  L 143.994891 31.777411  z " clip-path="url(#p2a74c09716)" style="fill: #a1dab4; stroke: #444443; stroke-width: 0.5; stroke-linejoin: miter" />
   </g>
   <g id="patch_37">
    <path d="M 152.000978 31.777411  L 160.007065 31.777411  L 160.007065 31.777411  L 152.000978 31.777411  z " clip-path="url(#p2a74c09716)" style="fill: #a1dab4; stroke: #444443; stroke-width: 0.5; stroke-linejoin: miter" />
   </g>
   <g id="patch_38">
    <path d="M 160.007065 31.777411  L 168.013152 31.777411  L 168.013152 31.777411  L 160.007065 31.777411  z " clip-path="url(#p2a74c09716)" style="fill: #a1dab4; stroke: #444443; stroke-width: 0.5; stroke-linejoin: miter" />
   </g>
   <g id="patch_39">
    <path d="M 168.013152 31.777411  L 176.019239 31.777411  L 176.019239 31.777411  L 168.013152 31.777411  z " clip-path="url(#p2a74c09716)" style="fill: #a1dab4; stroke: #444443; stroke-width: 0.5; stroke-linejoin: miter" />
   </g>
   <g id="patch_40">
    <path d="M 176.019239 31.777411  L 184.025326 31.777411  L 184.025326 31.777411  L 176.019239 31.777411  z " clip-path="url(#p2a74c09716)" style="fill: #a1dab4; stroke: #444443; stroke-width: 0.5; stroke-linejoin: miter" />
   </g>
   <g id="patch_41">
    <path d="M 68.047167 32.609011  L 64.732647 40.925011  L 71.361687 40.925011  z " style="fill: #444443" />
   </g>
   <g id="patch_42">
    <path d="M 15.8975 31.777411  L 15.8975 1.417411  " style="fill: none; stroke: #444443; stroke-width: 0.3; stroke-linejoin: miter; stroke-linecap: square" />
   </g>
   <g id="patch_43">
    <path d="M 15.8975 31.777411  L 200.0375 31.777411  " style="fill: none; stroke: #444443; stroke-width: 0.3; stroke-linejoin: miter; stroke-linecap: square" />
   </g>
  </g>
 </g>
 <defs>
  <clipPath id="p2a74c09716">
   <rect x="15.8975" y="1.417411" width="184.14" height="30.36" />
  </clipPath>
 </defs>
</svg></g>

<g id="node4" class="node">
<title>leaf3</title>
<polygon fill="none" stroke="#444443" stroke-width="0" points="217.5,-105 198.5,-105 198.5,-72 217.5,-72 217.5,-105" />
<svg width="11px" height="25px" viewBox="0 0 15.4 33.871437" version="1.1" preserveAspectRatio="xMinYMin meet" x="203" y="-100.5">
 <metadata>
  <rdf:RDF>
   <ns2:Work>
    <dc:type rdf:resource="http://purl.org/dc/dcmitype/StillImage" />
    <dc:date>2024-07-15T17:18:33.769323</dc:date>
    <dc:format>image/svg+xml</dc:format>
    <dc:creator>
     <ns2:Agent>
      <dc:title>Matplotlib v3.8.4, https://matplotlib.org/</dc:title>
     </ns2:Agent>
    </dc:creator>
   </ns2:Work>
  </rdf:RDF>
 </metadata>
 <defs>
  <style type="text/css">*{stroke-linejoin: round; stroke-linecap: butt}</style>
 </defs>
 <g id="figure_1">
  <g id="patch_1">
   <path d="M 0 33.871437  L 15.4 33.871437  L 15.4 0  L 0 0  z " style="fill: #ffffff" />
  </g>
  <g id="axes_1">
   <g id="patch_2">
    <path d="M 15.4 7.7  C 15.4 6.688845 15.200825 5.687523 14.813872 4.753338  C 14.42692 3.819152 13.859717 2.970272 13.144722 2.255278  C 12.429728 1.540283 11.580848 0.97308 10.646662 0.586128  C 9.712477 0.199175 8.711155 -0 7.7 -0  C 6.688845 -0 5.687523 0.199175 4.753338 0.586128  C 3.819152 0.97308 2.970272 1.540283 2.255278 2.255278  C 1.540283 2.970272 0.97308 3.819152 0.586128 4.753338  C 0.199175 5.687523 -0 6.688845 -0 7.7  C -0 8.711155 0.199175 9.712477 0.586128 10.646662  C 0.97308 11.580848 1.540283 12.429728 2.255278 13.144722  C 2.970272 13.859717 3.819152 14.42692 4.753338 14.813872  C 5.687523 15.200825 6.688845 15.4 7.7 15.4  C 8.711155 15.4 9.712477 15.200825 10.646662 14.813872  C 11.580848 14.42692 12.429728 13.859717 13.144722 13.144722  C 13.859717 12.429728 14.42692 11.580848 14.813872 10.646662  C 15.200825 9.712477 15.4 8.711155 15.4 7.7  M 7.7 7.7  z " style="fill: #a1dab4; stroke: #444443; stroke-width: 0.5; stroke-linejoin: miter" />
   </g>
   <g id="text_1">
    
    <g style="fill: #444443" transform="translate(0.066875 22.458031) scale(0.09 -0.09)">
     <defs>
      <path id="ArialMT-6e" d="M 422 0  L 422 3319  L 928 3319  L 928 2847  Q 1294 3394 1984 3394  Q 2284 3394 2536 3286  Q 2788 3178 2913 3003  Q 3038 2828 3088 2588  Q 3119 2431 3119 2041  L 3119 0  L 2556 0  L 2556 2019  Q 2556 2363 2490 2533  Q 2425 2703 2258 2804  Q 2091 2906 1866 2906  Q 1506 2906 1245 2678  Q 984 2450 984 1813  L 984 0  L 422 0  z " transform="scale(0.015625)" />
      <path id="ArialMT-3d" d="M 3381 2694  L 356 2694  L 356 3219  L 3381 3219  L 3381 2694  z M 3381 1303  L 356 1303  L 356 1828  L 3381 1828  L 3381 1303  z " transform="scale(0.015625)" />
      <path id="ArialMT-35" d="M 266 1200  L 856 1250  Q 922 819 1161 601  Q 1400 384 1738 384  Q 2144 384 2425 690  Q 2706 997 2706 1503  Q 2706 1984 2436 2262  Q 2166 2541 1728 2541  Q 1456 2541 1237 2417  Q 1019 2294 894 2097  L 366 2166  L 809 4519  L 3088 4519  L 3088 3981  L 1259 3981  L 1013 2750  Q 1425 3038 1878 3038  Q 2478 3038 2890 2622  Q 3303 2206 3303 1553  Q 3303 931 2941 478  Q 2500 -78 1738 -78  Q 1113 -78 717 272  Q 322 622 266 1200  z " transform="scale(0.015625)" />
     </defs>
     <use xlink:href="#ArialMT-6e" />
     <use xlink:href="#ArialMT-3d" x="55.615234" />
     <use xlink:href="#ArialMT-35" x="114.013672" />
    </g>
    
    <g style="fill: #444443" transform="translate(0.697578 31.977219) scale(0.09 -0.09)">
     <defs>
      <path id="ArialMT-79" d="M 397 -1278  L 334 -750  Q 519 -800 656 -800  Q 844 -800 956 -737  Q 1069 -675 1141 -563  Q 1194 -478 1313 -144  Q 1328 -97 1363 -6  L 103 3319  L 709 3319  L 1400 1397  Q 1534 1031 1641 628  Q 1738 1016 1872 1384  L 2581 3319  L 3144 3319  L 1881 -56  Q 1678 -603 1566 -809  Q 1416 -1088 1222 -1217  Q 1028 -1347 759 -1347  Q 597 -1347 397 -1278  z " transform="scale(0.015625)" />
      <path id="ArialMT-65" d="M 2694 1069  L 3275 997  Q 3138 488 2766 206  Q 2394 -75 1816 -75  Q 1088 -75 661 373  Q 234 822 234 1631  Q 234 2469 665 2931  Q 1097 3394 1784 3394  Q 2450 3394 2872 2941  Q 3294 2488 3294 1666  Q 3294 1616 3291 1516  L 816 1516  Q 847 969 1125 678  Q 1403 388 1819 388  Q 2128 388 2347 550  Q 2566 713 2694 1069  z M 847 1978  L 2700 1978  Q 2663 2397 2488 2606  Q 2219 2931 1791 2931  Q 1403 2931 1139 2672  Q 875 2413 847 1978  z " transform="scale(0.015625)" />
      <path id="ArialMT-73" d="M 197 991  L 753 1078  Q 800 744 1014 566  Q 1228 388 1613 388  Q 2000 388 2187 545  Q 2375 703 2375 916  Q 2375 1106 2209 1216  Q 2094 1291 1634 1406  Q 1016 1563 777 1677  Q 538 1791 414 1992  Q 291 2194 291 2438  Q 291 2659 392 2848  Q 494 3038 669 3163  Q 800 3259 1026 3326  Q 1253 3394 1513 3394  Q 1903 3394 2198 3281  Q 2494 3169 2634 2976  Q 2775 2784 2828 2463  L 2278 2388  Q 2241 2644 2061 2787  Q 1881 2931 1553 2931  Q 1166 2931 1000 2803  Q 834 2675 834 2503  Q 834 2394 903 2306  Q 972 2216 1119 2156  Q 1203 2125 1616 2013  Q 2213 1853 2448 1751  Q 2684 1650 2818 1456  Q 2953 1263 2953 975  Q 2953 694 2789 445  Q 2625 197 2315 61  Q 2006 -75 1616 -75  Q 969 -75 630 194  Q 291 463 197 991  z " transform="scale(0.015625)" />
     </defs>
     <use xlink:href="#ArialMT-79" />
     <use xlink:href="#ArialMT-65" x="50" />
     <use xlink:href="#ArialMT-73" x="105.615234" />
    </g>
   </g>
  </g>
 </g>
</svg></g>

<g id="edge1" class="edge">
<title>node2-&gt;leaf3</title>
<path fill="none" stroke="#444443" stroke-width="0.3" d="M158.26,-72.38C172.3,-77.02 185.32,-81.33 194.36,-84.32" />
<polygon fill="#444443" stroke="#444443" stroke-width="0.3" points="194.23,-85.75 198.47,-85.68 195.11,-83.09 194.23,-85.75" />
</g>

<g id="node5" class="node">
<title>leaf4</title>
<polygon fill="none" stroke="#444443" stroke-width="0" points="233,-65 183,-65 183,0 233,0 233,-65" />
<svg width="42px" height="57px" viewBox="0 0 57.287981 77.329478" version="1.1" preserveAspectRatio="xMinYMin meet" x="187" y="-60.5">
 <metadata>
  <rdf:RDF>
   <ns2:Work>
    <dc:type rdf:resource="http://purl.org/dc/dcmitype/StillImage" />
    <dc:date>2024-07-15T17:18:33.788755</dc:date>
    <dc:format>image/svg+xml</dc:format>
    <dc:creator>
     <ns2:Agent>
      <dc:title>Matplotlib v3.8.4, https://matplotlib.org/</dc:title>
     </ns2:Agent>
    </dc:creator>
   </ns2:Work>
  </rdf:RDF>
 </metadata>
 <defs>
  <style type="text/css">*{stroke-linejoin: round; stroke-linecap: butt}</style>
 </defs>
 <g id="figure_1">
  <g id="patch_1">
   <path d="M 0 77.329478  L 57.287981 77.329478  L 57.287981 0  L 0 0  z " style="fill: #ffffff" />
  </g>
  <g id="axes_1">
   <g id="patch_2">
    <path d="M 57.287981 28.643989  C 57.287981 24.59109 56.427802 20.583962 54.76444 16.888124  C 53.101078 13.192287 50.672104 9.891215 47.638466 7.203646  C 44.604827 4.516078 41.035044 2.502714 37.165657 1.296964  C 33.29627 0.091215 29.214674 -0.279687 25.191326 0.208836  C 21.167978 0.69736 17.293749 2.034274 13.825354 4.130992  C 10.35696 6.22771 7.372738 9.036875 5.070429 12.372346  C 2.768121 15.707816 1.199726 19.494256 0.469172 23.480768  C -0.261383 27.46728 -0.137598 31.563823 0.832325 35.498952  L 28.643981 28.643989  z " style="fill: #fefebb; stroke: #444443; stroke-width: 0.5; stroke-linejoin: miter" />
   </g>
   <g id="patch_3">
    <path d="M 0.832325 35.498952  C 2.506819 42.292635 6.613917 48.242792 12.372339 52.217542  C 18.130761 56.192292 25.150651 57.922538 32.096639 57.079141  C 39.042627 56.235745 45.444456 52.875804 50.084326 47.638471  C 54.724197 42.401137 57.287982 35.640988 57.287981 28.643984  L 28.643981 28.643989  z " style="fill: #a1dab4; stroke: #444443; stroke-width: 0.5; stroke-linejoin: miter" />
   </g>
   <g id="text_1">
    
    <g style="fill: #444443" transform="translate(18.508434 66.02154) scale(0.09 -0.09)">
     <defs>
      <path id="ArialMT-6e" d="M 422 0  L 422 3319  L 928 3319  L 928 2847  Q 1294 3394 1984 3394  Q 2284 3394 2536 3286  Q 2788 3178 2913 3003  Q 3038 2828 3088 2588  Q 3119 2431 3119 2041  L 3119 0  L 2556 0  L 2556 2019  Q 2556 2363 2490 2533  Q 2425 2703 2258 2804  Q 2091 2906 1866 2906  Q 1506 2906 1245 2678  Q 984 2450 984 1813  L 984 0  L 422 0  z " transform="scale(0.015625)" />
      <path id="ArialMT-3d" d="M 3381 2694  L 356 2694  L 356 3219  L 3381 3219  L 3381 2694  z M 3381 1303  L 356 1303  L 356 1828  L 3381 1828  L 3381 1303  z " transform="scale(0.015625)" />
      <path id="ArialMT-33" d="M 269 1209  L 831 1284  Q 928 806 1161 595  Q 1394 384 1728 384  Q 2125 384 2398 659  Q 2672 934 2672 1341  Q 2672 1728 2419 1979  Q 2166 2231 1775 2231  Q 1616 2231 1378 2169  L 1441 2663  Q 1497 2656 1531 2656  Q 1891 2656 2178 2843  Q 2466 3031 2466 3422  Q 2466 3731 2256 3934  Q 2047 4138 1716 4138  Q 1388 4138 1169 3931  Q 950 3725 888 3313  L 325 3413  Q 428 3978 793 4289  Q 1159 4600 1703 4600  Q 2078 4600 2393 4439  Q 2709 4278 2876 4000  Q 3044 3722 3044 3409  Q 3044 3113 2884 2869  Q 2725 2625 2413 2481  Q 2819 2388 3044 2092  Q 3269 1797 3269 1353  Q 3269 753 2831 336  Q 2394 -81 1725 -81  Q 1122 -81 723 278  Q 325 638 269 1209  z " transform="scale(0.015625)" />
      <path id="ArialMT-39" d="M 350 1059  L 891 1109  Q 959 728 1153 556  Q 1347 384 1650 384  Q 1909 384 2104 503  Q 2300 622 2425 820  Q 2550 1019 2634 1356  Q 2719 1694 2719 2044  Q 2719 2081 2716 2156  Q 2547 1888 2255 1720  Q 1963 1553 1622 1553  Q 1053 1553 659 1965  Q 266 2378 266 3053  Q 266 3750 677 4175  Q 1088 4600 1706 4600  Q 2153 4600 2523 4359  Q 2894 4119 3086 3673  Q 3278 3228 3278 2384  Q 3278 1506 3087 986  Q 2897 466 2520 194  Q 2144 -78 1638 -78  Q 1100 -78 759 220  Q 419 519 350 1059  z M 2653 3081  Q 2653 3566 2395 3850  Q 2138 4134 1775 4134  Q 1400 4134 1122 3828  Q 844 3522 844 3034  Q 844 2597 1108 2323  Q 1372 2050 1759 2050  Q 2150 2050 2401 2323  Q 2653 2597 2653 3081  z " transform="scale(0.015625)" />
     </defs>
     <use xlink:href="#ArialMT-6e" />
     <use xlink:href="#ArialMT-3d" x="55.615234" />
     <use xlink:href="#ArialMT-33" x="114.013672" />
     <use xlink:href="#ArialMT-39" x="169.628906" />
    </g>
    
    <g style="fill: #444443" transform="translate(23.639137 75.540728) scale(0.09 -0.09)">
     <defs>
      <path id="ArialMT-6f" d="M 213 1659  Q 213 2581 725 3025  Q 1153 3394 1769 3394  Q 2453 3394 2887 2945  Q 3322 2497 3322 1706  Q 3322 1066 3130 698  Q 2938 331 2570 128  Q 2203 -75 1769 -75  Q 1072 -75 642 372  Q 213 819 213 1659  z M 791 1659  Q 791 1022 1069 705  Q 1347 388 1769 388  Q 2188 388 2466 706  Q 2744 1025 2744 1678  Q 2744 2294 2464 2611  Q 2184 2928 1769 2928  Q 1347 2928 1069 2612  Q 791 2297 791 1659  z " transform="scale(0.015625)" />
     </defs>
     <use xlink:href="#ArialMT-6e" />
     <use xlink:href="#ArialMT-6f" x="55.615234" />
    </g>
   </g>
  </g>
 </g>
</svg></g>

<g id="edge2" class="edge">
<title>node2-&gt;leaf4</title>
<path fill="none" stroke="#444443" stroke-width="0.3" d="M158.26,-37.87C165.48,-37.08 172.43,-36.31 178.7,-35.62" />
<polygon fill="#444443" stroke="#444443" stroke-width="0.3" points="179.11,-36.98 182.93,-35.15 178.81,-34.2 179.11,-36.98" />
</g>

<g id="node2" class="node">
<title>node5</title>
<svg width="150px" height="69px" viewBox="0 0 200.0375 92.476875" version="1.1" preserveAspectRatio="xMinYMin meet" x="4" y="-198.5">
 <metadata>
  <rdf:RDF>
   <ns2:Work>
    <dc:type rdf:resource="http://purl.org/dc/dcmitype/StillImage" />
    <dc:date>2024-07-15T17:18:33.554393</dc:date>
    <dc:format>image/svg+xml</dc:format>
    <dc:creator>
     <ns2:Agent>
      <dc:title>Matplotlib v3.8.4, https://matplotlib.org/</dc:title>
     </ns2:Agent>
    </dc:creator>
   </ns2:Work>
  </rdf:RDF>
 </metadata>
 <defs>
  <style type="text/css">*{stroke-linejoin: round; stroke-linecap: butt}</style>
 </defs>
 <g id="figure_1">
  <g id="patch_1">
   <path d="M 0 92.476875  L 200.0375 92.476875  L 200.0375 -0  L 0 -0  z " style="fill: #ffffff" />
  </g>
  <g id="axes_1">
   <g id="patch_2">
    <path d="M 15.8975 62.04  L 200.0375 62.04  L 200.0375 0  L 15.8975 0  z " style="fill: #ffffff" />
   </g>
   <g id="matplotlib.axis_1">
    <g id="xtick_1">
     <g id="line2d_1" />
     <g id="text_1">
      
      <g style="fill: #444443" transform="translate(26.349674 75.76625) scale(0.08 -0.08)">
       <defs>
        <path id="ArialMT-30" d="M 266 2259  Q 266 3072 433 3567  Q 600 4063 929 4331  Q 1259 4600 1759 4600  Q 2128 4600 2406 4451  Q 2684 4303 2865 4023  Q 3047 3744 3150 3342  Q 3253 2941 3253 2259  Q 3253 1453 3087 958  Q 2922 463 2592 192  Q 2263 -78 1759 -78  Q 1097 -78 719 397  Q 266 969 266 2259  z M 844 2259  Q 844 1131 1108 757  Q 1372 384 1759 384  Q 2147 384 2411 759  Q 2675 1134 2675 2259  Q 2675 3391 2411 3762  Q 2147 4134 1753 4134  Q 1366 4134 1134 3806  Q 844 3388 844 2259  z " transform="scale(0.015625)" />
        <path id="ArialMT-2e" d="M 581 0  L 581 641  L 1222 641  L 1222 0  L 581 0  z " transform="scale(0.015625)" />
       </defs>
       <use xlink:href="#ArialMT-30" />
       <use xlink:href="#ArialMT-2e" x="55.615234" />
       <use xlink:href="#ArialMT-30" x="83.398438" />
      </g>
     </g>
    </g>
    <g id="xtick_2">
     <g id="line2d_2" />
     <g id="text_2">
      
      <g style="fill: #444443" transform="translate(71.98437 75.76625) scale(0.08 -0.08)">
       <defs>
        <path id="ArialMT-31" d="M 2384 0  L 1822 0  L 1822 3584  Q 1619 3391 1289 3197  Q 959 3003 697 2906  L 697 3450  Q 1169 3672 1522 3987  Q 1875 4303 2022 4600  L 2384 4600  L 2384 0  z " transform="scale(0.015625)" />
        <path id="ArialMT-35" d="M 266 1200  L 856 1250  Q 922 819 1161 601  Q 1400 384 1738 384  Q 2144 384 2425 690  Q 2706 997 2706 1503  Q 2706 1984 2436 2262  Q 2166 2541 1728 2541  Q 1456 2541 1237 2417  Q 1019 2294 894 2097  L 366 2166  L 809 4519  L 3088 4519  L 3088 3981  L 1259 3981  L 1013 2750  Q 1425 3038 1878 3038  Q 2478 3038 2890 2622  Q 3303 2206 3303 1553  Q 3303 931 2941 478  Q 2500 -78 1738 -78  Q 1113 -78 717 272  Q 322 622 266 1200  z " transform="scale(0.015625)" />
       </defs>
       <use xlink:href="#ArialMT-31" />
       <use xlink:href="#ArialMT-2e" x="55.615234" />
       <use xlink:href="#ArialMT-35" x="83.398438" />
      </g>
     </g>
    </g>
    <g id="xtick_3">
     <g id="line2d_3" />
     <g id="text_3">
      
      <g style="fill: #444443" transform="translate(178.465326 75.76625) scale(0.08 -0.08)">
       <use xlink:href="#ArialMT-35" />
       <use xlink:href="#ArialMT-2e" x="55.615234" />
       <use xlink:href="#ArialMT-30" x="83.398438" />
      </g>
     </g>
    </g>
    <g id="text_4">
     
     <g style="fill: #444443" transform="translate(91.956875 90.091875) scale(0.12 -0.12)">
      <defs>
       <path id="ArialMT-53" d="M 288 1472  L 859 1522  Q 900 1178 1048 958  Q 1197 738 1509 602  Q 1822 466 2213 466  Q 2559 466 2825 569  Q 3091 672 3220 851  Q 3350 1031 3350 1244  Q 3350 1459 3225 1620  Q 3100 1781 2813 1891  Q 2628 1963 1997 2114  Q 1366 2266 1113 2400  Q 784 2572 623 2826  Q 463 3081 463 3397  Q 463 3744 659 4045  Q 856 4347 1234 4503  Q 1613 4659 2075 4659  Q 2584 4659 2973 4495  Q 3363 4331 3572 4012  Q 3781 3694 3797 3291  L 3216 3247  Q 3169 3681 2898 3903  Q 2628 4125 2100 4125  Q 1550 4125 1298 3923  Q 1047 3722 1047 3438  Q 1047 3191 1225 3031  Q 1400 2872 2139 2705  Q 2878 2538 3153 2413  Q 3553 2228 3743 1945  Q 3934 1663 3934 1294  Q 3934 928 3725 604  Q 3516 281 3123 101  Q 2731 -78 2241 -78  Q 1619 -78 1198 103  Q 778 284 539 648  Q 300 1013 288 1472  z " transform="scale(0.015625)" />
       <path id="ArialMT-69" d="M 425 3934  L 425 4581  L 988 4581  L 988 3934  L 425 3934  z M 425 0  L 425 3319  L 988 3319  L 988 0  L 425 0  z " transform="scale(0.015625)" />
       <path id="ArialMT-62" d="M 941 0  L 419 0  L 419 4581  L 981 4581  L 981 2947  Q 1338 3394 1891 3394  Q 2197 3394 2470 3270  Q 2744 3147 2920 2923  Q 3097 2700 3197 2384  Q 3297 2069 3297 1709  Q 3297 856 2875 390  Q 2453 -75 1863 -75  Q 1275 -75 941 416  L 941 0  z M 934 1684  Q 934 1088 1097 822  Q 1363 388 1816 388  Q 2184 388 2453 708  Q 2722 1028 2722 1663  Q 2722 2313 2464 2622  Q 2206 2931 1841 2931  Q 1472 2931 1203 2611  Q 934 2291 934 1684  z " transform="scale(0.015625)" />
       <path id="ArialMT-70" d="M 422 -1272  L 422 3319  L 934 3319  L 934 2888  Q 1116 3141 1344 3267  Q 1572 3394 1897 3394  Q 2322 3394 2647 3175  Q 2972 2956 3137 2557  Q 3303 2159 3303 1684  Q 3303 1175 3120 767  Q 2938 359 2589 142  Q 2241 -75 1856 -75  Q 1575 -75 1351 44  Q 1128 163 984 344  L 984 -1272  L 422 -1272  z M 931 1641  Q 931 1000 1190 694  Q 1450 388 1819 388  Q 2194 388 2461 705  Q 2728 1022 2728 1688  Q 2728 2322 2467 2637  Q 2206 2953 1844 2953  Q 1484 2953 1207 2617  Q 931 2281 931 1641  z " transform="scale(0.015625)" />
      </defs>
      <use xlink:href="#ArialMT-53" />
      <use xlink:href="#ArialMT-69" x="66.699219" />
      <use xlink:href="#ArialMT-62" x="88.916016" />
      <use xlink:href="#ArialMT-53" x="144.53125" />
      <use xlink:href="#ArialMT-70" x="211.230469" />
     </g>
    </g>
   </g>
   <g id="matplotlib.axis_2">
    <g id="ytick_1">
     <g id="line2d_4" />
     <g id="text_5">
      
      <g style="fill: #444443" transform="translate(4.44875 64.903125) scale(0.08 -0.08)">
       <use xlink:href="#ArialMT-30" />
      </g>
     </g>
    </g>
    <g id="ytick_2">
     <g id="line2d_5" />
     <g id="text_6">
      
      <g style="fill: #444443" transform="translate(0 5.817411) scale(0.08 -0.08)">
       <defs>
        <path id="ArialMT-36" d="M 3184 3459  L 2625 3416  Q 2550 3747 2413 3897  Q 2184 4138 1850 4138  Q 1581 4138 1378 3988  Q 1113 3794 959 3422  Q 806 3050 800 2363  Q 1003 2672 1297 2822  Q 1591 2972 1913 2972  Q 2475 2972 2870 2558  Q 3266 2144 3266 1488  Q 3266 1056 3080 686  Q 2894 316 2569 119  Q 2244 -78 1831 -78  Q 1128 -78 684 439  Q 241 956 241 2144  Q 241 3472 731 4075  Q 1159 4600 1884 4600  Q 2425 4600 2770 4297  Q 3116 3994 3184 3459  z M 888 1484  Q 888 1194 1011 928  Q 1134 663 1356 523  Q 1578 384 1822 384  Q 2178 384 2434 671  Q 2691 959 2691 1453  Q 2691 1928 2437 2201  Q 2184 2475 1800 2475  Q 1419 2475 1153 2201  Q 888 1928 888 1484  z " transform="scale(0.015625)" />
       </defs>
       <use xlink:href="#ArialMT-35" />
       <use xlink:href="#ArialMT-36" x="55.615234" />
      </g>
     </g>
    </g>
   </g>
   <g id="patch_3">
    <path d="M 31.909674 62.04  L 39.915761 62.04  L 39.915761 21.946122  L 31.909674 21.946122  z " clip-path="url(#p9dc613d4a0)" style="fill: #fefebb; stroke: #444443; stroke-width: 0.5; stroke-linejoin: miter" />
   </g>
   <g id="patch_4">
    <path d="M 39.915761 62.04  L 47.921848 62.04  L 47.921848 62.04  L 39.915761 62.04  z " clip-path="url(#p9dc613d4a0)" style="fill: #fefebb; stroke: #444443; stroke-width: 0.5; stroke-linejoin: miter" />
   </g>
   <g id="patch_5">
    <path d="M 47.921848 62.04  L 55.927935 62.04  L 55.927935 62.04  L 47.921848 62.04  z " clip-path="url(#p9dc613d4a0)" style="fill: #fefebb; stroke: #444443; stroke-width: 0.5; stroke-linejoin: miter" />
   </g>
   <g id="patch_6">
    <path d="M 55.927935 62.04  L 63.934022 62.04  L 63.934022 52.544082  L 55.927935 52.544082  z " clip-path="url(#p9dc613d4a0)" style="fill: #fefebb; stroke: #444443; stroke-width: 0.5; stroke-linejoin: miter" />
   </g>
   <g id="patch_7">
    <path d="M 63.934022 62.04  L 71.940109 62.04  L 71.940109 62.04  L 63.934022 62.04  z " clip-path="url(#p9dc613d4a0)" style="fill: #fefebb; stroke: #444443; stroke-width: 0.5; stroke-linejoin: miter" />
   </g>
   <g id="patch_8">
    <path d="M 71.940109 62.04  L 79.946196 62.04  L 79.946196 62.04  L 71.940109 62.04  z " clip-path="url(#p9dc613d4a0)" style="fill: #fefebb; stroke: #444443; stroke-width: 0.5; stroke-linejoin: miter" />
   </g>
   <g id="patch_9">
    <path d="M 79.946196 62.04  L 87.952283 62.04  L 87.952283 62.04  L 79.946196 62.04  z " clip-path="url(#p9dc613d4a0)" style="fill: #fefebb; stroke: #444443; stroke-width: 0.5; stroke-linejoin: miter" />
   </g>
   <g id="patch_10">
    <path d="M 87.952283 62.04  L 95.95837 62.04  L 95.95837 56.76449  L 87.952283 56.76449  z " clip-path="url(#p9dc613d4a0)" style="fill: #fefebb; stroke: #444443; stroke-width: 0.5; stroke-linejoin: miter" />
   </g>
   <g id="patch_11">
    <path d="M 95.95837 62.04  L 103.964457 62.04  L 103.964457 62.04  L 95.95837 62.04  z " clip-path="url(#p9dc613d4a0)" style="fill: #fefebb; stroke: #444443; stroke-width: 0.5; stroke-linejoin: miter" />
   </g>
   <g id="patch_12">
    <path d="M 103.964457 62.04  L 111.970543 62.04  L 111.970543 62.04  L 103.964457 62.04  z " clip-path="url(#p9dc613d4a0)" style="fill: #fefebb; stroke: #444443; stroke-width: 0.5; stroke-linejoin: miter" />
   </g>
   <g id="patch_13">
    <path d="M 111.970543 62.04  L 119.97663 62.04  L 119.97663 62.04  L 111.970543 62.04  z " clip-path="url(#p9dc613d4a0)" style="fill: #fefebb; stroke: #444443; stroke-width: 0.5; stroke-linejoin: miter" />
   </g>
   <g id="patch_14">
    <path d="M 119.97663 62.04  L 127.982717 62.04  L 127.982717 58.874694  L 119.97663 58.874694  z " clip-path="url(#p9dc613d4a0)" style="fill: #fefebb; stroke: #444443; stroke-width: 0.5; stroke-linejoin: miter" />
   </g>
   <g id="patch_15">
    <path d="M 127.982717 62.04  L 135.988804 62.04  L 135.988804 62.04  L 127.982717 62.04  z " clip-path="url(#p9dc613d4a0)" style="fill: #fefebb; stroke: #444443; stroke-width: 0.5; stroke-linejoin: miter" />
   </g>
   <g id="patch_16">
    <path d="M 135.988804 62.04  L 143.994891 62.04  L 143.994891 62.04  L 135.988804 62.04  z " clip-path="url(#p9dc613d4a0)" style="fill: #fefebb; stroke: #444443; stroke-width: 0.5; stroke-linejoin: miter" />
   </g>
   <g id="patch_17">
    <path d="M 143.994891 62.04  L 152.000978 62.04  L 152.000978 62.04  L 143.994891 62.04  z " clip-path="url(#p9dc613d4a0)" style="fill: #fefebb; stroke: #444443; stroke-width: 0.5; stroke-linejoin: miter" />
   </g>
   <g id="patch_18">
    <path d="M 152.000978 62.04  L 160.007065 62.04  L 160.007065 58.874694  L 152.000978 58.874694  z " clip-path="url(#p9dc613d4a0)" style="fill: #fefebb; stroke: #444443; stroke-width: 0.5; stroke-linejoin: miter" />
   </g>
   <g id="patch_19">
    <path d="M 160.007065 62.04  L 168.013152 62.04  L 168.013152 62.04  L 160.007065 62.04  z " clip-path="url(#p9dc613d4a0)" style="fill: #fefebb; stroke: #444443; stroke-width: 0.5; stroke-linejoin: miter" />
   </g>
   <g id="patch_20">
    <path d="M 168.013152 62.04  L 176.019239 62.04  L 176.019239 62.04  L 168.013152 62.04  z " clip-path="url(#p9dc613d4a0)" style="fill: #fefebb; stroke: #444443; stroke-width: 0.5; stroke-linejoin: miter" />
   </g>
   <g id="patch_21">
    <path d="M 176.019239 62.04  L 184.025326 62.04  L 184.025326 59.929796  L 176.019239 59.929796  z " clip-path="url(#p9dc613d4a0)" style="fill: #fefebb; stroke: #444443; stroke-width: 0.5; stroke-linejoin: miter" />
   </g>
   <g id="patch_22">
    <path d="M 31.909674 21.946122  L 39.915761 21.946122  L 39.915761 2.954286  L 31.909674 2.954286  z " clip-path="url(#p9dc613d4a0)" style="fill: #a1dab4; stroke: #444443; stroke-width: 0.5; stroke-linejoin: miter" />
   </g>
   <g id="patch_23">
    <path d="M 39.915761 62.04  L 47.921848 62.04  L 47.921848 62.04  L 39.915761 62.04  z " clip-path="url(#p9dc613d4a0)" style="fill: #a1dab4; stroke: #444443; stroke-width: 0.5; stroke-linejoin: miter" />
   </g>
   <g id="patch_24">
    <path d="M 47.921848 62.04  L 55.927935 62.04  L 55.927935 62.04  L 47.921848 62.04  z " clip-path="url(#p9dc613d4a0)" style="fill: #a1dab4; stroke: #444443; stroke-width: 0.5; stroke-linejoin: miter" />
   </g>
   <g id="patch_25">
    <path d="M 55.927935 52.544082  L 63.934022 52.544082  L 63.934022 44.103265  L 55.927935 44.103265  z " clip-path="url(#p9dc613d4a0)" style="fill: #a1dab4; stroke: #444443; stroke-width: 0.5; stroke-linejoin: miter" />
   </g>
   <g id="patch_26">
    <path d="M 63.934022 62.04  L 71.940109 62.04  L 71.940109 62.04  L 63.934022 62.04  z " clip-path="url(#p9dc613d4a0)" style="fill: #a1dab4; stroke: #444443; stroke-width: 0.5; stroke-linejoin: miter" />
   </g>
   <g id="patch_27">
    <path d="M 71.940109 62.04  L 79.946196 62.04  L 79.946196 62.04  L 71.940109 62.04  z " clip-path="url(#p9dc613d4a0)" style="fill: #a1dab4; stroke: #444443; stroke-width: 0.5; stroke-linejoin: miter" />
   </g>
   <g id="patch_28">
    <path d="M 79.946196 62.04  L 87.952283 62.04  L 87.952283 62.04  L 79.946196 62.04  z " clip-path="url(#p9dc613d4a0)" style="fill: #a1dab4; stroke: #444443; stroke-width: 0.5; stroke-linejoin: miter" />
   </g>
   <g id="patch_29">
    <path d="M 87.952283 56.76449  L 95.95837 56.76449  L 95.95837 56.76449  L 87.952283 56.76449  z " clip-path="url(#p9dc613d4a0)" style="fill: #a1dab4; stroke: #444443; stroke-width: 0.5; stroke-linejoin: miter" />
   </g>
   <g id="patch_30">
    <path d="M 95.95837 62.04  L 103.964457 62.04  L 103.964457 62.04  L 95.95837 62.04  z " clip-path="url(#p9dc613d4a0)" style="fill: #a1dab4; stroke: #444443; stroke-width: 0.5; stroke-linejoin: miter" />
   </g>
   <g id="patch_31">
    <path d="M 103.964457 62.04  L 111.970543 62.04  L 111.970543 62.04  L 103.964457 62.04  z " clip-path="url(#p9dc613d4a0)" style="fill: #a1dab4; stroke: #444443; stroke-width: 0.5; stroke-linejoin: miter" />
   </g>
   <g id="patch_32">
    <path d="M 111.970543 62.04  L 119.97663 62.04  L 119.97663 62.04  L 111.970543 62.04  z " clip-path="url(#p9dc613d4a0)" style="fill: #a1dab4; stroke: #444443; stroke-width: 0.5; stroke-linejoin: miter" />
   </g>
   <g id="patch_33">
    <path d="M 119.97663 58.874694  L 127.982717 58.874694  L 127.982717 57.819592  L 119.97663 57.819592  z " clip-path="url(#p9dc613d4a0)" style="fill: #a1dab4; stroke: #444443; stroke-width: 0.5; stroke-linejoin: miter" />
   </g>
   <g id="patch_34">
    <path d="M 127.982717 62.04  L 135.988804 62.04  L 135.988804 62.04  L 127.982717 62.04  z " clip-path="url(#p9dc613d4a0)" style="fill: #a1dab4; stroke: #444443; stroke-width: 0.5; stroke-linejoin: miter" />
   </g>
   <g id="patch_35">
    <path d="M 135.988804 62.04  L 143.994891 62.04  L 143.994891 62.04  L 135.988804 62.04  z " clip-path="url(#p9dc613d4a0)" style="fill: #a1dab4; stroke: #444443; stroke-width: 0.5; stroke-linejoin: miter" />
   </g>
   <g id="patch_36">
    <path d="M 143.994891 62.04  L 152.000978 62.04  L 152.000978 62.04  L 143.994891 62.04  z " clip-path="url(#p9dc613d4a0)" style="fill: #a1dab4; stroke: #444443; stroke-width: 0.5; stroke-linejoin: miter" />
   </g>
   <g id="patch_37">
    <path d="M 152.000978 58.874694  L 160.007065 58.874694  L 160.007065 57.819592  L 152.000978 57.819592  z " clip-path="url(#p9dc613d4a0)" style="fill: #a1dab4; stroke: #444443; stroke-width: 0.5; stroke-linejoin: miter" />
   </g>
   <g id="patch_38">
    <path d="M 160.007065 62.04  L 168.013152 62.04  L 168.013152 62.04  L 160.007065 62.04  z " clip-path="url(#p9dc613d4a0)" style="fill: #a1dab4; stroke: #444443; stroke-width: 0.5; stroke-linejoin: miter" />
   </g>
   <g id="patch_39">
    <path d="M 168.013152 62.04  L 176.019239 62.04  L 176.019239 62.04  L 168.013152 62.04  z " clip-path="url(#p9dc613d4a0)" style="fill: #a1dab4; stroke: #444443; stroke-width: 0.5; stroke-linejoin: miter" />
   </g>
   <g id="patch_40">
    <path d="M 176.019239 59.929796  L 184.025326 59.929796  L 184.025326 59.929796  L 176.019239 59.929796  z " clip-path="url(#p9dc613d4a0)" style="fill: #a1dab4; stroke: #444443; stroke-width: 0.5; stroke-linejoin: miter" />
   </g>
   <g id="patch_41">
    <path d="M 77.54437 62.8716  L 74.22985 71.1876  L 80.85889 71.1876  z " style="fill: #444443" />
   </g>
   <g id="patch_42">
    <path d="M 15.8975 62.04  L 15.8975 0  " style="fill: none; stroke: #444443; stroke-width: 0.3; stroke-linejoin: miter; stroke-linecap: square" />
   </g>
   <g id="patch_43">
    <path d="M 15.8975 62.04  L 200.0375 62.04  " style="fill: none; stroke: #444443; stroke-width: 0.3; stroke-linejoin: miter; stroke-linecap: square" />
   </g>
  </g>
 </g>
 <defs>
  <clipPath id="p9dc613d4a0">
   <rect x="15.8975" y="0" width="184.14" height="62.04" />
  </clipPath>
 </defs>
</svg></g>

<g id="node6" class="node">
<title>leaf6</title>
<polygon fill="none" stroke="#444443" stroke-width="0" points="242,-245 174,-245 174,-162 242,-162 242,-245" />
<svg width="60px" height="75px" viewBox="0 0 80.079975 101.033164" version="1.1" preserveAspectRatio="xMinYMin meet" x="178" y="-240.5">
 <metadata>
  <rdf:RDF>
   <ns2:Work>
    <dc:type rdf:resource="http://purl.org/dc/dcmitype/StillImage" />
    <dc:date>2024-07-15T17:18:33.809692</dc:date>
    <dc:format>image/svg+xml</dc:format>
    <dc:creator>
     <ns2:Agent>
      <dc:title>Matplotlib v3.8.4, https://matplotlib.org/</dc:title>
     </ns2:Agent>
    </dc:creator>
   </ns2:Work>
  </rdf:RDF>
 </metadata>
 <defs>
  <style type="text/css">*{stroke-linejoin: round; stroke-linecap: butt}</style>
 </defs>
 <g id="figure_1">
  <g id="patch_1">
   <path d="M 0 101.033164  L 80.079975 101.033164  L 80.079975 0  L 0 0  z " style="fill: #ffffff" />
  </g>
  <g id="axes_1">
   <g id="patch_2">
    <path d="M 80.079975 40.039996  C 80.079975 33.255278 78.355485 26.580586 75.069027 20.644966  C 71.782568 14.709347 67.040733 9.705311 61.290407 6.104457  C 55.540081 2.503604 48.967768 0.42272 42.192865 0.057916  C 35.417962 -0.306888 28.660203 1.05622 22.556461 4.018775  C 16.45272 6.98133 11.200962 11.447247 7.296131 16.995642  C 3.3913 22.544037 0.960043 28.994957 0.231491 35.740444  C -0.497062 42.485932 0.500719 49.307208 3.1308 55.561412  C 5.76088 61.815616 9.937958 67.299903 15.26837 71.497414  L 40.039975 40.039996  z " style="fill: #fefebb; stroke: #444443; stroke-width: 0.5; stroke-linejoin: miter" />
   </g>
   <g id="patch_3">
    <path d="M 15.26837 71.497414  C 21.172758 76.146911 28.268585 79.041478 35.740424 79.84848  C 43.212263 80.655483 50.7625 79.342778 57.523489 76.061216  C 64.284479 72.779655 69.986922 67.659945 73.975514 61.290427  C 77.964105 54.920909 80.079975 47.555288 80.079975 40.039996  L 40.039975 40.039996  z " style="fill: #a1dab4; stroke: #444443; stroke-width: 0.5; stroke-linejoin: miter" />
   </g>
   <g id="text_1">
    
    <g style="fill: #444443" transform="translate(29.904428 89.725227) scale(0.09 -0.09)">
     <defs>
      <path id="ArialMT-6e" d="M 422 0  L 422 3319  L 928 3319  L 928 2847  Q 1294 3394 1984 3394  Q 2284 3394 2536 3286  Q 2788 3178 2913 3003  Q 3038 2828 3088 2588  Q 3119 2431 3119 2041  L 3119 0  L 2556 0  L 2556 2019  Q 2556 2363 2490 2533  Q 2425 2703 2258 2804  Q 2091 2906 1866 2906  Q 1506 2906 1245 2678  Q 984 2450 984 1813  L 984 0  L 422 0  z " transform="scale(0.015625)" />
      <path id="ArialMT-3d" d="M 3381 2694  L 356 2694  L 356 3219  L 3381 3219  L 3381 2694  z M 3381 1303  L 356 1303  L 356 1828  L 3381 1828  L 3381 1303  z " transform="scale(0.015625)" />
      <path id="ArialMT-37" d="M 303 3981  L 303 4522  L 3269 4522  L 3269 4084  Q 2831 3619 2401 2847  Q 1972 2075 1738 1259  Q 1569 684 1522 0  L 944 0  Q 953 541 1156 1306  Q 1359 2072 1739 2783  Q 2119 3494 2547 3981  L 303 3981  z " transform="scale(0.015625)" />
      <path id="ArialMT-33" d="M 269 1209  L 831 1284  Q 928 806 1161 595  Q 1394 384 1728 384  Q 2125 384 2398 659  Q 2672 934 2672 1341  Q 2672 1728 2419 1979  Q 2166 2231 1775 2231  Q 1616 2231 1378 2169  L 1441 2663  Q 1497 2656 1531 2656  Q 1891 2656 2178 2843  Q 2466 3031 2466 3422  Q 2466 3731 2256 3934  Q 2047 4138 1716 4138  Q 1388 4138 1169 3931  Q 950 3725 888 3313  L 325 3413  Q 428 3978 793 4289  Q 1159 4600 1703 4600  Q 2078 4600 2393 4439  Q 2709 4278 2876 4000  Q 3044 3722 3044 3409  Q 3044 3113 2884 2869  Q 2725 2625 2413 2481  Q 2819 2388 3044 2092  Q 3269 1797 3269 1353  Q 3269 753 2831 336  Q 2394 -81 1725 -81  Q 1122 -81 723 278  Q 325 638 269 1209  z " transform="scale(0.015625)" />
     </defs>
     <use xlink:href="#ArialMT-6e" />
     <use xlink:href="#ArialMT-3d" x="55.615234" />
     <use xlink:href="#ArialMT-37" x="114.013672" />
     <use xlink:href="#ArialMT-33" x="169.628906" />
    </g>
    
    <g style="fill: #444443" transform="translate(35.035132 99.244414) scale(0.09 -0.09)">
     <defs>
      <path id="ArialMT-6f" d="M 213 1659  Q 213 2581 725 3025  Q 1153 3394 1769 3394  Q 2453 3394 2887 2945  Q 3322 2497 3322 1706  Q 3322 1066 3130 698  Q 2938 331 2570 128  Q 2203 -75 1769 -75  Q 1072 -75 642 372  Q 213 819 213 1659  z M 791 1659  Q 791 1022 1069 705  Q 1347 388 1769 388  Q 2188 388 2466 706  Q 2744 1025 2744 1678  Q 2744 2294 2464 2611  Q 2184 2928 1769 2928  Q 1347 2928 1069 2612  Q 791 2297 791 1659  z " transform="scale(0.015625)" />
     </defs>
     <use xlink:href="#ArialMT-6e" />
     <use xlink:href="#ArialMT-6f" x="55.615234" />
    </g>
   </g>
  </g>
 </g>
</svg></g>

<g id="edge4" class="edge">
<title>node5-&gt;leaf6</title>
<path fill="none" stroke="#444443" stroke-width="0.3" d="M158.26,-188.53C162.15,-189.73 165.96,-190.9 169.63,-192.02" />
<polygon fill="#444443" stroke="#444443" stroke-width="0.3" points="169.64,-193.49 173.87,-193.33 170.46,-190.81 169.64,-193.49" />
</g>

<g id="node7" class="node">
<title>leaf7</title>
<polygon fill="none" stroke="#444443" stroke-width="0" points="222.5,-155 193.5,-155 193.5,-112 222.5,-112 222.5,-155" />
<svg width="21px" height="35px" viewBox="0 0 27.719999 46.578767" version="1.1" preserveAspectRatio="xMinYMin meet" x="198" y="-150.5">
 <metadata>
  <rdf:RDF>
   <ns2:Work>
    <dc:type rdf:resource="http://purl.org/dc/dcmitype/StillImage" />
    <dc:date>2024-07-15T17:18:33.833539</dc:date>
    <dc:format>image/svg+xml</dc:format>
    <dc:creator>
     <ns2:Agent>
      <dc:title>Matplotlib v3.8.4, https://matplotlib.org/</dc:title>
     </ns2:Agent>
    </dc:creator>
   </ns2:Work>
  </rdf:RDF>
 </metadata>
 <defs>
  <style type="text/css">*{stroke-linejoin: round; stroke-linecap: butt}</style>
 </defs>
 <g id="figure_1">
  <g id="patch_1">
   <path d="M 0 46.578767  L 27.719999 46.578767  L 27.719999 0  L 0 0  z " style="fill: #ffffff" />
  </g>
  <g id="axes_1">
   <g id="patch_2">
    <path d="M 27.719999 13.859998  C 27.719999 12.283846 27.45114 10.719181 26.92501 9.233435  C 26.39888 7.747689 25.623146 6.362517 24.631242 5.137617  C 23.639338 3.912717 22.445719 2.865942 21.101829 2.042405  C 19.757939 1.218868 18.283364 0.630572 16.741655 0.302872  C 15.199946 -0.024828 13.613573 -0.087157 12.050906 0.118572  C 10.488238 0.324301 8.972052 0.79509 7.56769 1.510647  C 6.163329 2.226205 4.891261 3.176103 3.80631 4.319404  C 2.721359 5.462704 1.839337 6.782742 1.198259 8.222628  C 0.55718 9.662514 0.166388 11.201262 0.042725 12.772555  C -0.080939 14.343848 0.064329 15.924784 0.472267 17.44723  C 0.880205 18.969676 1.544868 20.411441 2.43761 21.710389  C 3.330353 23.009336 4.438162 24.146535 5.713296 25.072974  C 6.988429 25.999412 8.412302 26.701588 9.923547 27.149239  C 11.434792 27.596891 13.011384 27.783493 14.585376 27.701003  C 16.159368 27.618514 17.707818 27.268135 19.163992 26.664968  C 20.620166 26.061801 21.962841 25.214636 23.13415 24.159985  L 13.859999 13.859998  z " style="fill: #fefebb; stroke: #444443; stroke-width: 0.5; stroke-linejoin: miter" />
   </g>
   <g id="patch_3">
    <path d="M 23.13415 24.159985  C 24.577536 22.860354 25.731748 21.271716 26.52174 19.497367  C 27.311731 17.723017 27.719999 15.802264 27.719999 13.859996  L 13.859999 13.859998  z " style="fill: #a1dab4; stroke: #444443; stroke-width: 0.5; stroke-linejoin: miter" />
   </g>
   <g id="text_1">
    
    <g style="fill: #444443" transform="translate(3.724452 35.270829) scale(0.09 -0.09)">
     <defs>
      <path id="ArialMT-6e" d="M 422 0  L 422 3319  L 928 3319  L 928 2847  Q 1294 3394 1984 3394  Q 2284 3394 2536 3286  Q 2788 3178 2913 3003  Q 3038 2828 3088 2588  Q 3119 2431 3119 2041  L 3119 0  L 2556 0  L 2556 2019  Q 2556 2363 2490 2533  Q 2425 2703 2258 2804  Q 2091 2906 1866 2906  Q 1506 2906 1245 2678  Q 984 2450 984 1813  L 984 0  L 422 0  z " transform="scale(0.015625)" />
      <path id="ArialMT-3d" d="M 3381 2694  L 356 2694  L 356 3219  L 3381 3219  L 3381 2694  z M 3381 1303  L 356 1303  L 356 1828  L 3381 1828  L 3381 1303  z " transform="scale(0.015625)" />
      <path id="ArialMT-31" d="M 2384 0  L 1822 0  L 1822 3584  Q 1619 3391 1289 3197  Q 959 3003 697 2906  L 697 3450  Q 1169 3672 1522 3987  Q 1875 4303 2022 4600  L 2384 4600  L 2384 0  z " transform="scale(0.015625)" />
      <path id="ArialMT-35" d="M 266 1200  L 856 1250  Q 922 819 1161 601  Q 1400 384 1738 384  Q 2144 384 2425 690  Q 2706 997 2706 1503  Q 2706 1984 2436 2262  Q 2166 2541 1728 2541  Q 1456 2541 1237 2417  Q 1019 2294 894 2097  L 366 2166  L 809 4519  L 3088 4519  L 3088 3981  L 1259 3981  L 1013 2750  Q 1425 3038 1878 3038  Q 2478 3038 2890 2622  Q 3303 2206 3303 1553  Q 3303 931 2941 478  Q 2500 -78 1738 -78  Q 1113 -78 717 272  Q 322 622 266 1200  z " transform="scale(0.015625)" />
     </defs>
     <use xlink:href="#ArialMT-6e" />
     <use xlink:href="#ArialMT-3d" x="55.615234" />
     <use xlink:href="#ArialMT-31" x="114.013672" />
     <use xlink:href="#ArialMT-35" x="169.628906" />
    </g>
    
    <g style="fill: #444443" transform="translate(8.855155 44.790017) scale(0.09 -0.09)">
     <defs>
      <path id="ArialMT-6f" d="M 213 1659  Q 213 2581 725 3025  Q 1153 3394 1769 3394  Q 2453 3394 2887 2945  Q 3322 2497 3322 1706  Q 3322 1066 3130 698  Q 2938 331 2570 128  Q 2203 -75 1769 -75  Q 1072 -75 642 372  Q 213 819 213 1659  z M 791 1659  Q 791 1022 1069 705  Q 1347 388 1769 388  Q 2188 388 2466 706  Q 2744 1025 2744 1678  Q 2744 2294 2464 2611  Q 2184 2928 1769 2928  Q 1347 2928 1069 2612  Q 791 2297 791 1659  z " transform="scale(0.015625)" />
     </defs>
     <use xlink:href="#ArialMT-6e" />
     <use xlink:href="#ArialMT-6f" x="55.615234" />
    </g>
   </g>
  </g>
 </g>
</svg></g>

<g id="edge5" class="edge">
<title>node5-&gt;leaf7</title>
<path fill="none" stroke="#444443" stroke-width="0.3" d="M158.26,-145.4C169.84,-142.57 180.73,-139.91 189.26,-137.83" />
<polygon fill="#444443" stroke="#444443" stroke-width="0.3" points="189.7,-139.16 193.26,-136.85 189.04,-136.44 189.7,-139.16" />
</g>

<g id="node3" class="node">
<title>node10</title>
<svg width="147px" height="45px" viewBox="0 0 195.58875 59.694375" version="1.1" preserveAspectRatio="xMinYMin meet" x="6" y="-311.5">
 <metadata>
  <rdf:RDF>
   <ns2:Work>
    <dc:type rdf:resource="http://purl.org/dc/dcmitype/StillImage" />
    <dc:date>2024-07-15T17:18:33.728362</dc:date>
    <dc:format>image/svg+xml</dc:format>
    <dc:creator>
     <ns2:Agent>
      <dc:title>Matplotlib v3.8.4, https://matplotlib.org/</dc:title>
     </ns2:Agent>
    </dc:creator>
   </ns2:Work>
  </rdf:RDF>
 </metadata>
 <defs>
  <style type="text/css">*{stroke-linejoin: round; stroke-linecap: butt}</style>
 </defs>
 <g id="figure_1">
  <g id="patch_1">
   <path d="M 0 59.694375  L 195.58875 59.694375  L 195.58875 0  L 0 0  z " style="fill: #ffffff" />
  </g>
  <g id="axes_1">
   <g id="patch_2">
    <path d="M 11.44875 29.263125  L 195.58875 29.263125  L 195.58875 1.543125  L 11.44875 1.543125  z " style="fill: #ffffff" />
   </g>
   <g id="matplotlib.axis_1">
    <g id="xtick_1">
     <g id="line2d_1" />
     <g id="text_1">
      
      <g style="fill: #444443" transform="translate(19.676549 42.989375) scale(0.08 -0.08)">
       <defs>
        <path id="ArialMT-30" d="M 266 2259  Q 266 3072 433 3567  Q 600 4063 929 4331  Q 1259 4600 1759 4600  Q 2128 4600 2406 4451  Q 2684 4303 2865 4023  Q 3047 3744 3150 3342  Q 3253 2941 3253 2259  Q 3253 1453 3087 958  Q 2922 463 2592 192  Q 2263 -78 1759 -78  Q 1097 -78 719 397  Q 266 969 266 2259  z M 844 2259  Q 844 1131 1108 757  Q 1372 384 1759 384  Q 2147 384 2411 759  Q 2675 1134 2675 2259  Q 2675 3391 2411 3762  Q 2147 4134 1753 4134  Q 1366 4134 1134 3806  Q 844 3388 844 2259  z " transform="scale(0.015625)" />
        <path id="ArialMT-2e" d="M 581 0  L 581 641  L 1222 641  L 1222 0  L 581 0  z " transform="scale(0.015625)" />
        <path id="ArialMT-38" d="M 1131 2484  Q 781 2613 612 2850  Q 444 3088 444 3419  Q 444 3919 803 4259  Q 1163 4600 1759 4600  Q 2359 4600 2725 4251  Q 3091 3903 3091 3403  Q 3091 3084 2923 2848  Q 2756 2613 2416 2484  Q 2838 2347 3058 2040  Q 3278 1734 3278 1309  Q 3278 722 2862 322  Q 2447 -78 1769 -78  Q 1091 -78 675 323  Q 259 725 259 1325  Q 259 1772 486 2073  Q 713 2375 1131 2484  z M 1019 3438  Q 1019 3113 1228 2906  Q 1438 2700 1772 2700  Q 2097 2700 2305 2904  Q 2513 3109 2513 3406  Q 2513 3716 2298 3927  Q 2084 4138 1766 4138  Q 1444 4138 1231 3931  Q 1019 3725 1019 3438  z M 838 1322  Q 838 1081 952 856  Q 1066 631 1291 507  Q 1516 384 1775 384  Q 2178 384 2440 643  Q 2703 903 2703 1303  Q 2703 1709 2433 1975  Q 2163 2241 1756 2241  Q 1359 2241 1098 1978  Q 838 1716 838 1322  z " transform="scale(0.015625)" />
        <path id="ArialMT-33" d="M 269 1209  L 831 1284  Q 928 806 1161 595  Q 1394 384 1728 384  Q 2125 384 2398 659  Q 2672 934 2672 1341  Q 2672 1728 2419 1979  Q 2166 2231 1775 2231  Q 1616 2231 1378 2169  L 1441 2663  Q 1497 2656 1531 2656  Q 1891 2656 2178 2843  Q 2466 3031 2466 3422  Q 2466 3731 2256 3934  Q 2047 4138 1716 4138  Q 1388 4138 1169 3931  Q 950 3725 888 3313  L 325 3413  Q 428 3978 793 4289  Q 1159 4600 1703 4600  Q 2078 4600 2393 4439  Q 2709 4278 2876 4000  Q 3044 3722 3044 3409  Q 3044 3113 2884 2869  Q 2725 2625 2413 2481  Q 2819 2388 3044 2092  Q 3269 1797 3269 1353  Q 3269 753 2831 336  Q 2394 -81 1725 -81  Q 1122 -81 723 278  Q 325 638 269 1209  z " transform="scale(0.015625)" />
       </defs>
       <use xlink:href="#ArialMT-30" />
       <use xlink:href="#ArialMT-2e" x="55.615234" />
       <use xlink:href="#ArialMT-38" x="83.398438" />
       <use xlink:href="#ArialMT-33" x="139.013672" />
      </g>
     </g>
    </g>
    <g id="xtick_2">
     <g id="line2d_2" />
     <g id="text_2">
      
      <g style="fill: #444443" transform="translate(142.470125 42.989375) scale(0.08 -0.08)">
       <defs>
        <path id="ArialMT-35" d="M 266 1200  L 856 1250  Q 922 819 1161 601  Q 1400 384 1738 384  Q 2144 384 2425 690  Q 2706 997 2706 1503  Q 2706 1984 2436 2262  Q 2166 2541 1728 2541  Q 1456 2541 1237 2417  Q 1019 2294 894 2097  L 366 2166  L 809 4519  L 3088 4519  L 3088 3981  L 1259 3981  L 1013 2750  Q 1425 3038 1878 3038  Q 2478 3038 2890 2622  Q 3303 2206 3303 1553  Q 3303 931 2941 478  Q 2500 -78 1738 -78  Q 1113 -78 717 272  Q 322 622 266 1200  z " transform="scale(0.015625)" />
       </defs>
       <use xlink:href="#ArialMT-35" />
       <use xlink:href="#ArialMT-38" x="55.615234" />
       <use xlink:href="#ArialMT-2e" x="111.230469" />
       <use xlink:href="#ArialMT-35" x="139.013672" />
       <use xlink:href="#ArialMT-30" x="194.628906" />
      </g>
     </g>
    </g>
    <g id="xtick_3">
     <g id="line2d_3" />
     <g id="text_3">
      
      <g style="fill: #444443" transform="translate(169.567826 42.989375) scale(0.08 -0.08)">
       <defs>
        <path id="ArialMT-37" d="M 303 3981  L 303 4522  L 3269 4522  L 3269 4084  Q 2831 3619 2401 2847  Q 1972 2075 1738 1259  Q 1569 684 1522 0  L 944 0  Q 953 541 1156 1306  Q 1359 2072 1739 2783  Q 2119 3494 2547 3981  L 303 3981  z " transform="scale(0.015625)" />
        <path id="ArialMT-31" d="M 2384 0  L 1822 0  L 1822 3584  Q 1619 3391 1289 3197  Q 959 3003 697 2906  L 697 3450  Q 1169 3672 1522 3987  Q 1875 4303 2022 4600  L 2384 4600  L 2384 0  z " transform="scale(0.015625)" />
       </defs>
       <use xlink:href="#ArialMT-37" />
       <use xlink:href="#ArialMT-31" x="55.615234" />
       <use xlink:href="#ArialMT-2e" x="111.230469" />
       <use xlink:href="#ArialMT-30" x="139.013672" />
       <use xlink:href="#ArialMT-30" x="194.628906" />
      </g>
     </g>
    </g>
    <g id="text_4">
     
     <g style="fill: #444443" transform="translate(92.843438 57.16875) scale(0.12 -0.12)">
      <defs>
       <path id="ArialMT-41" d="M -9 0  L 1750 4581  L 2403 4581  L 4278 0  L 3588 0  L 3053 1388  L 1138 1388  L 634 0  L -9 0  z M 1313 1881  L 2866 1881  L 2388 3150  Q 2169 3728 2063 4100  Q 1975 3659 1816 3225  L 1313 1881  z " transform="scale(0.015625)" />
       <path id="ArialMT-67" d="M 319 -275  L 866 -356  Q 900 -609 1056 -725  Q 1266 -881 1628 -881  Q 2019 -881 2231 -725  Q 2444 -569 2519 -288  Q 2563 -116 2559 434  Q 2191 0 1641 0  Q 956 0 581 494  Q 206 988 206 1678  Q 206 2153 378 2554  Q 550 2956 876 3175  Q 1203 3394 1644 3394  Q 2231 3394 2613 2919  L 2613 3319  L 3131 3319  L 3131 450  Q 3131 -325 2973 -648  Q 2816 -972 2473 -1159  Q 2131 -1347 1631 -1347  Q 1038 -1347 672 -1080  Q 306 -813 319 -275  z M 784 1719  Q 784 1066 1043 766  Q 1303 466 1694 466  Q 2081 466 2343 764  Q 2606 1063 2606 1700  Q 2606 2309 2336 2618  Q 2066 2928 1684 2928  Q 1309 2928 1046 2623  Q 784 2319 784 1719  z " transform="scale(0.015625)" />
       <path id="ArialMT-65" d="M 2694 1069  L 3275 997  Q 3138 488 2766 206  Q 2394 -75 1816 -75  Q 1088 -75 661 373  Q 234 822 234 1631  Q 234 2469 665 2931  Q 1097 3394 1784 3394  Q 2450 3394 2872 2941  Q 3294 2488 3294 1666  Q 3294 1616 3291 1516  L 816 1516  Q 847 969 1125 678  Q 1403 388 1819 388  Q 2128 388 2347 550  Q 2566 713 2694 1069  z M 847 1978  L 2700 1978  Q 2663 2397 2488 2606  Q 2219 2931 1791 2931  Q 1403 2931 1139 2672  Q 875 2413 847 1978  z " transform="scale(0.015625)" />
      </defs>
      <use xlink:href="#ArialMT-41" />
      <use xlink:href="#ArialMT-67" x="66.699219" />
      <use xlink:href="#ArialMT-65" x="122.314453" />
     </g>
    </g>
   </g>
   <g id="matplotlib.axis_2">
    <g id="ytick_1">
     <g id="line2d_4" />
     <g id="text_5">
      
      <g style="fill: #444443" transform="translate(0 32.12625) scale(0.08 -0.08)">
       <use xlink:href="#ArialMT-30" />
      </g>
     </g>
    </g>
    <g id="ytick_2">
     <g id="line2d_5" />
     <g id="text_6">
      
      <g style="fill: #444443" transform="translate(0 5.72625) scale(0.08 -0.08)">
       <defs>
        <path id="ArialMT-34" d="M 2069 0  L 2069 1097  L 81 1097  L 81 1613  L 2172 4581  L 2631 4581  L 2631 1613  L 3250 1613  L 3250 1097  L 2631 1097  L 2631 0  L 2069 0  z M 2069 1613  L 2069 3678  L 634 1613  L 2069 1613  z " transform="scale(0.015625)" />
       </defs>
       <use xlink:href="#ArialMT-34" />
      </g>
     </g>
    </g>
   </g>
   <g id="patch_3">
    <path d="M 27.460924 29.263125  L 35.467011 29.263125  L 35.467011 29.263125  L 27.460924 29.263125  z " clip-path="url(#p362540a6e5)" style="fill: #fefebb; stroke: #444443; stroke-width: 0.5; stroke-linejoin: miter" />
   </g>
   <g id="patch_4">
    <path d="M 35.467011 29.263125  L 43.473098 29.263125  L 43.473098 29.263125  L 35.467011 29.263125  z " clip-path="url(#p362540a6e5)" style="fill: #fefebb; stroke: #444443; stroke-width: 0.5; stroke-linejoin: miter" />
   </g>
   <g id="patch_5">
    <path d="M 43.473098 29.263125  L 51.479185 29.263125  L 51.479185 29.263125  L 43.473098 29.263125  z " clip-path="url(#p362540a6e5)" style="fill: #fefebb; stroke: #444443; stroke-width: 0.5; stroke-linejoin: miter" />
   </g>
   <g id="patch_6">
    <path d="M 51.479185 29.263125  L 59.485272 29.263125  L 59.485272 29.263125  L 51.479185 29.263125  z " clip-path="url(#p362540a6e5)" style="fill: #fefebb; stroke: #444443; stroke-width: 0.5; stroke-linejoin: miter" />
   </g>
   <g id="patch_7">
    <path d="M 59.485272 29.263125  L 67.491359 29.263125  L 67.491359 29.263125  L 59.485272 29.263125  z " clip-path="url(#p362540a6e5)" style="fill: #fefebb; stroke: #444443; stroke-width: 0.5; stroke-linejoin: miter" />
   </g>
   <g id="patch_8">
    <path d="M 67.491359 29.263125  L 75.497446 29.263125  L 75.497446 29.263125  L 67.491359 29.263125  z " clip-path="url(#p362540a6e5)" style="fill: #fefebb; stroke: #444443; stroke-width: 0.5; stroke-linejoin: miter" />
   </g>
   <g id="patch_9">
    <path d="M 75.497446 29.263125  L 83.503533 29.263125  L 83.503533 29.263125  L 75.497446 29.263125  z " clip-path="url(#p362540a6e5)" style="fill: #fefebb; stroke: #444443; stroke-width: 0.5; stroke-linejoin: miter" />
   </g>
   <g id="patch_10">
    <path d="M 83.503533 29.263125  L 91.50962 29.263125  L 91.50962 29.263125  L 83.503533 29.263125  z " clip-path="url(#p362540a6e5)" style="fill: #fefebb; stroke: #444443; stroke-width: 0.5; stroke-linejoin: miter" />
   </g>
   <g id="patch_11">
    <path d="M 91.50962 29.263125  L 99.515707 29.263125  L 99.515707 29.263125  L 91.50962 29.263125  z " clip-path="url(#p362540a6e5)" style="fill: #fefebb; stroke: #444443; stroke-width: 0.5; stroke-linejoin: miter" />
   </g>
   <g id="patch_12">
    <path d="M 99.515707 29.263125  L 107.521793 29.263125  L 107.521793 29.263125  L 99.515707 29.263125  z " clip-path="url(#p362540a6e5)" style="fill: #fefebb; stroke: #444443; stroke-width: 0.5; stroke-linejoin: miter" />
   </g>
   <g id="patch_13">
    <path d="M 107.521793 29.263125  L 115.52788 29.263125  L 115.52788 29.263125  L 107.521793 29.263125  z " clip-path="url(#p362540a6e5)" style="fill: #fefebb; stroke: #444443; stroke-width: 0.5; stroke-linejoin: miter" />
   </g>
   <g id="patch_14">
    <path d="M 115.52788 29.263125  L 123.533967 29.263125  L 123.533967 29.263125  L 115.52788 29.263125  z " clip-path="url(#p362540a6e5)" style="fill: #fefebb; stroke: #444443; stroke-width: 0.5; stroke-linejoin: miter" />
   </g>
   <g id="patch_15">
    <path d="M 123.533967 29.263125  L 131.540054 29.263125  L 131.540054 29.263125  L 123.533967 29.263125  z " clip-path="url(#p362540a6e5)" style="fill: #fefebb; stroke: #444443; stroke-width: 0.5; stroke-linejoin: miter" />
   </g>
   <g id="patch_16">
    <path d="M 131.540054 29.263125  L 139.546141 29.263125  L 139.546141 16.063125  L 131.540054 16.063125  z " clip-path="url(#p362540a6e5)" style="fill: #fefebb; stroke: #444443; stroke-width: 0.5; stroke-linejoin: miter" />
   </g>
   <g id="patch_17">
    <path d="M 139.546141 29.263125  L 147.552228 29.263125  L 147.552228 9.463125  L 139.546141 9.463125  z " clip-path="url(#p362540a6e5)" style="fill: #fefebb; stroke: #444443; stroke-width: 0.5; stroke-linejoin: miter" />
   </g>
   <g id="patch_18">
    <path d="M 147.552228 29.263125  L 155.558315 29.263125  L 155.558315 22.663125  L 147.552228 22.663125  z " clip-path="url(#p362540a6e5)" style="fill: #fefebb; stroke: #444443; stroke-width: 0.5; stroke-linejoin: miter" />
   </g>
   <g id="patch_19">
    <path d="M 155.558315 29.263125  L 163.564402 29.263125  L 163.564402 29.263125  L 155.558315 29.263125  z " clip-path="url(#p362540a6e5)" style="fill: #fefebb; stroke: #444443; stroke-width: 0.5; stroke-linejoin: miter" />
   </g>
   <g id="patch_20">
    <path d="M 163.564402 29.263125  L 171.570489 29.263125  L 171.570489 16.063125  L 163.564402 16.063125  z " clip-path="url(#p362540a6e5)" style="fill: #fefebb; stroke: #444443; stroke-width: 0.5; stroke-linejoin: miter" />
   </g>
   <g id="patch_21">
    <path d="M 171.570489 29.263125  L 179.576576 29.263125  L 179.576576 16.063125  L 171.570489 16.063125  z " clip-path="url(#p362540a6e5)" style="fill: #fefebb; stroke: #444443; stroke-width: 0.5; stroke-linejoin: miter" />
   </g>
   <g id="patch_22">
    <path d="M 27.460924 29.263125  L 35.467011 29.263125  L 35.467011 29.263125  L 27.460924 29.263125  z " clip-path="url(#p362540a6e5)" style="fill: #a1dab4; stroke: #444443; stroke-width: 0.5; stroke-linejoin: miter" />
   </g>
   <g id="patch_23">
    <path d="M 35.467011 29.263125  L 43.473098 29.263125  L 43.473098 29.263125  L 35.467011 29.263125  z " clip-path="url(#p362540a6e5)" style="fill: #a1dab4; stroke: #444443; stroke-width: 0.5; stroke-linejoin: miter" />
   </g>
   <g id="patch_24">
    <path d="M 43.473098 29.263125  L 51.479185 29.263125  L 51.479185 29.263125  L 43.473098 29.263125  z " clip-path="url(#p362540a6e5)" style="fill: #a1dab4; stroke: #444443; stroke-width: 0.5; stroke-linejoin: miter" />
   </g>
   <g id="patch_25">
    <path d="M 51.479185 29.263125  L 59.485272 29.263125  L 59.485272 29.263125  L 51.479185 29.263125  z " clip-path="url(#p362540a6e5)" style="fill: #a1dab4; stroke: #444443; stroke-width: 0.5; stroke-linejoin: miter" />
   </g>
   <g id="patch_26">
    <path d="M 59.485272 29.263125  L 67.491359 29.263125  L 67.491359 29.263125  L 59.485272 29.263125  z " clip-path="url(#p362540a6e5)" style="fill: #a1dab4; stroke: #444443; stroke-width: 0.5; stroke-linejoin: miter" />
   </g>
   <g id="patch_27">
    <path d="M 67.491359 29.263125  L 75.497446 29.263125  L 75.497446 29.263125  L 67.491359 29.263125  z " clip-path="url(#p362540a6e5)" style="fill: #a1dab4; stroke: #444443; stroke-width: 0.5; stroke-linejoin: miter" />
   </g>
   <g id="patch_28">
    <path d="M 75.497446 29.263125  L 83.503533 29.263125  L 83.503533 29.263125  L 75.497446 29.263125  z " clip-path="url(#p362540a6e5)" style="fill: #a1dab4; stroke: #444443; stroke-width: 0.5; stroke-linejoin: miter" />
   </g>
   <g id="patch_29">
    <path d="M 83.503533 29.263125  L 91.50962 29.263125  L 91.50962 29.263125  L 83.503533 29.263125  z " clip-path="url(#p362540a6e5)" style="fill: #a1dab4; stroke: #444443; stroke-width: 0.5; stroke-linejoin: miter" />
   </g>
   <g id="patch_30">
    <path d="M 91.50962 29.263125  L 99.515707 29.263125  L 99.515707 29.263125  L 91.50962 29.263125  z " clip-path="url(#p362540a6e5)" style="fill: #a1dab4; stroke: #444443; stroke-width: 0.5; stroke-linejoin: miter" />
   </g>
   <g id="patch_31">
    <path d="M 99.515707 29.263125  L 107.521793 29.263125  L 107.521793 29.263125  L 99.515707 29.263125  z " clip-path="url(#p362540a6e5)" style="fill: #a1dab4; stroke: #444443; stroke-width: 0.5; stroke-linejoin: miter" />
   </g>
   <g id="patch_32">
    <path d="M 107.521793 29.263125  L 115.52788 29.263125  L 115.52788 29.263125  L 107.521793 29.263125  z " clip-path="url(#p362540a6e5)" style="fill: #a1dab4; stroke: #444443; stroke-width: 0.5; stroke-linejoin: miter" />
   </g>
   <g id="patch_33">
    <path d="M 115.52788 29.263125  L 123.533967 29.263125  L 123.533967 29.263125  L 115.52788 29.263125  z " clip-path="url(#p362540a6e5)" style="fill: #a1dab4; stroke: #444443; stroke-width: 0.5; stroke-linejoin: miter" />
   </g>
   <g id="patch_34">
    <path d="M 123.533967 29.263125  L 131.540054 29.263125  L 131.540054 29.263125  L 123.533967 29.263125  z " clip-path="url(#p362540a6e5)" style="fill: #a1dab4; stroke: #444443; stroke-width: 0.5; stroke-linejoin: miter" />
   </g>
   <g id="patch_35">
    <path d="M 131.540054 16.063125  L 139.546141 16.063125  L 139.546141 9.463125  L 131.540054 9.463125  z " clip-path="url(#p362540a6e5)" style="fill: #a1dab4; stroke: #444443; stroke-width: 0.5; stroke-linejoin: miter" />
   </g>
   <g id="patch_36">
    <path d="M 139.546141 9.463125  L 147.552228 9.463125  L 147.552228 2.863125  L 139.546141 2.863125  z " clip-path="url(#p362540a6e5)" style="fill: #a1dab4; stroke: #444443; stroke-width: 0.5; stroke-linejoin: miter" />
   </g>
   <g id="patch_37">
    <path d="M 147.552228 22.663125  L 155.558315 22.663125  L 155.558315 16.063125  L 147.552228 16.063125  z " clip-path="url(#p362540a6e5)" style="fill: #a1dab4; stroke: #444443; stroke-width: 0.5; stroke-linejoin: miter" />
   </g>
   <g id="patch_38">
    <path d="M 155.558315 29.263125  L 163.564402 29.263125  L 163.564402 29.263125  L 155.558315 29.263125  z " clip-path="url(#p362540a6e5)" style="fill: #a1dab4; stroke: #444443; stroke-width: 0.5; stroke-linejoin: miter" />
   </g>
   <g id="patch_39">
    <path d="M 163.564402 16.063125  L 171.570489 16.063125  L 171.570489 16.063125  L 163.564402 16.063125  z " clip-path="url(#p362540a6e5)" style="fill: #a1dab4; stroke: #444443; stroke-width: 0.5; stroke-linejoin: miter" />
   </g>
   <g id="patch_40">
    <path d="M 171.570489 16.063125  L 179.576576 16.063125  L 179.576576 16.063125  L 171.570489 16.063125  z " clip-path="url(#p362540a6e5)" style="fill: #a1dab4; stroke: #444443; stroke-width: 0.5; stroke-linejoin: miter" />
   </g>
   <g id="patch_41">
    <path d="M 152.478875 30.094725  L 149.164355 38.410725  L 155.793395 38.410725  z " style="fill: #444443" />
   </g>
   <g id="patch_42">
    <path d="M 11.44875 29.263125  L 11.44875 1.543125  " style="fill: none; stroke: #444443; stroke-width: 0.3; stroke-linejoin: miter; stroke-linecap: square" />
   </g>
   <g id="patch_43">
    <path d="M 11.44875 29.263125  L 195.58875 29.263125  " style="fill: none; stroke: #444443; stroke-width: 0.3; stroke-linejoin: miter; stroke-linecap: square" />
   </g>
  </g>
 </g>
 <defs>
  <clipPath id="p362540a6e5">
   <rect x="11.44875" y="1.543125" width="184.14" height="27.72" />
  </clipPath>
 </defs>
</svg></g>

<g id="node8" class="node">
<title>leaf11</title>
<polygon fill="none" stroke="#444443" stroke-width="0" points="219,-328.5 197,-328.5 197,-292.5 219,-292.5 219,-328.5" />
<svg width="14px" height="28px" viewBox="0 0 19.095985 37.609804" version="1.1" preserveAspectRatio="xMinYMin meet" x="201" y="-324.5">
 <metadata>
  <rdf:RDF>
   <ns2:Work>
    <dc:type rdf:resource="http://purl.org/dc/dcmitype/StillImage" />
    <dc:date>2024-07-15T17:18:33.875350</dc:date>
    <dc:format>image/svg+xml</dc:format>
    <dc:creator>
     <ns2:Agent>
      <dc:title>Matplotlib v3.8.4, https://matplotlib.org/</dc:title>
     </ns2:Agent>
    </dc:creator>
   </ns2:Work>
  </rdf:RDF>
 </metadata>
 <defs>
  <style type="text/css">*{stroke-linejoin: round; stroke-linecap: butt}</style>
 </defs>
 <g id="figure_1">
  <g id="patch_1">
   <path d="M 0 37.609804  L 19.095985 37.609804  L 19.095985 0  L 0 0  z " style="fill: #ffffff" />
  </g>
  <g id="axes_1">
   <g id="patch_2">
    <path d="M 19.095985 9.547996  C 19.095985 7.977908 18.708704 6.431794 17.96857 5.0471  C 17.228435 3.662406 16.15805 2.481418 14.85257 1.609124  C 13.54709 0.73683 12.046381 0.199867 10.483853 0.045972  C 8.921326 -0.107924 7.344696 0.125947 5.894124 0.726794  C 4.443552 1.327641 3.163335 2.277114 2.167282 3.490809  C 1.171228 4.704503 0.489757 6.145354 0.183448 7.685273  C -0.122861 9.225192 -0.044653 10.817153 0.411119 12.319634  C 0.866892 13.822114 1.68631 15.189232 2.79653 16.299451  L 9.547985 9.547996  z " style="fill: #fefebb; stroke: #444443; stroke-width: 0.5; stroke-linejoin: miter" />
   </g>
   <g id="patch_3">
    <path d="M 2.79653 16.299451  C 4.131682 17.634603 5.833354 18.544166 7.685263 18.912534  C 9.537172 19.280901 11.457387 19.091777 13.201847 18.369197  C 14.946307 17.646618 16.437835 16.422553 17.486857 14.85258  C 18.535879 13.282608 19.095985 11.436186 19.095985 9.547996  L 9.547985 9.547996  z " style="fill: #a1dab4; stroke: #444443; stroke-width: 0.5; stroke-linejoin: miter" />
   </g>
   <g id="text_1">
    
    <g style="fill: #444443" transform="translate(1.91486 26.301867) scale(0.09 -0.09)">
     <defs>
      <path id="ArialMT-6e" d="M 422 0  L 422 3319  L 928 3319  L 928 2847  Q 1294 3394 1984 3394  Q 2284 3394 2536 3286  Q 2788 3178 2913 3003  Q 3038 2828 3088 2588  Q 3119 2431 3119 2041  L 3119 0  L 2556 0  L 2556 2019  Q 2556 2363 2490 2533  Q 2425 2703 2258 2804  Q 2091 2906 1866 2906  Q 1506 2906 1245 2678  Q 984 2450 984 1813  L 984 0  L 422 0  z " transform="scale(0.015625)" />
      <path id="ArialMT-3d" d="M 3381 2694  L 356 2694  L 356 3219  L 3381 3219  L 3381 2694  z M 3381 1303  L 356 1303  L 356 1828  L 3381 1828  L 3381 1303  z " transform="scale(0.015625)" />
      <path id="ArialMT-38" d="M 1131 2484  Q 781 2613 612 2850  Q 444 3088 444 3419  Q 444 3919 803 4259  Q 1163 4600 1759 4600  Q 2359 4600 2725 4251  Q 3091 3903 3091 3403  Q 3091 3084 2923 2848  Q 2756 2613 2416 2484  Q 2838 2347 3058 2040  Q 3278 1734 3278 1309  Q 3278 722 2862 322  Q 2447 -78 1769 -78  Q 1091 -78 675 323  Q 259 725 259 1325  Q 259 1772 486 2073  Q 713 2375 1131 2484  z M 1019 3438  Q 1019 3113 1228 2906  Q 1438 2700 1772 2700  Q 2097 2700 2305 2904  Q 2513 3109 2513 3406  Q 2513 3716 2298 3927  Q 2084 4138 1766 4138  Q 1444 4138 1231 3931  Q 1019 3725 1019 3438  z M 838 1322  Q 838 1081 952 856  Q 1066 631 1291 507  Q 1516 384 1775 384  Q 2178 384 2440 643  Q 2703 903 2703 1303  Q 2703 1709 2433 1975  Q 2163 2241 1756 2241  Q 1359 2241 1098 1978  Q 838 1716 838 1322  z " transform="scale(0.015625)" />
     </defs>
     <use xlink:href="#ArialMT-6e" />
     <use xlink:href="#ArialMT-3d" x="55.615234" />
     <use xlink:href="#ArialMT-38" x="114.013672" />
    </g>
    
    <g style="fill: #444443" transform="translate(4.543142 35.821054) scale(0.09 -0.09)">
     <defs>
      <path id="ArialMT-6f" d="M 213 1659  Q 213 2581 725 3025  Q 1153 3394 1769 3394  Q 2453 3394 2887 2945  Q 3322 2497 3322 1706  Q 3322 1066 3130 698  Q 2938 331 2570 128  Q 2203 -75 1769 -75  Q 1072 -75 642 372  Q 213 819 213 1659  z M 791 1659  Q 791 1022 1069 705  Q 1347 388 1769 388  Q 2188 388 2466 706  Q 2744 1025 2744 1678  Q 2744 2294 2464 2611  Q 2184 2928 1769 2928  Q 1347 2928 1069 2612  Q 791 2297 791 1659  z " transform="scale(0.015625)" />
     </defs>
     <use xlink:href="#ArialMT-6e" />
     <use xlink:href="#ArialMT-6f" x="55.615234" />
    </g>
   </g>
  </g>
 </g>
</svg></g>

<g id="edge7" class="edge">
<title>node10-&gt;leaf11</title>
<path fill="none" stroke="#444443" stroke-width="0.3" d="M156.81,-302.2C170.58,-304.48 183.47,-306.61 192.75,-308.14" />
<polygon fill="#444443" stroke="#444443" stroke-width="0.3" points="192.57,-309.53 196.74,-308.8 193.02,-306.77 192.57,-309.53" />
</g>

<g id="node9" class="node">
<title>leaf12</title>
<polygon fill="none" stroke="#444443" stroke-width="0" points="217.5,-285 198.5,-285 198.5,-252 217.5,-252 217.5,-285" />
<svg width="11px" height="25px" viewBox="0 0 15.4 33.765969" version="1.1" preserveAspectRatio="xMinYMin meet" x="203" y="-280.5">
 <metadata>
  <rdf:RDF>
   <ns2:Work>
    <dc:type rdf:resource="http://purl.org/dc/dcmitype/StillImage" />
    <dc:date>2024-07-15T17:18:33.899267</dc:date>
    <dc:format>image/svg+xml</dc:format>
    <dc:creator>
     <ns2:Agent>
      <dc:title>Matplotlib v3.8.4, https://matplotlib.org/</dc:title>
     </ns2:Agent>
    </dc:creator>
   </ns2:Work>
  </rdf:RDF>
 </metadata>
 <defs>
  <style type="text/css">*{stroke-linejoin: round; stroke-linecap: butt}</style>
 </defs>
 <g id="figure_1">
  <g id="patch_1">
   <path d="M 0 33.765969  L 15.4 33.765969  L 15.4 0  L 0 0  z " style="fill: #ffffff" />
  </g>
  <g id="axes_1">
   <g id="patch_2">
    <path d="M 15.4 7.7  C 15.4 6.688845 15.200825 5.687523 14.813872 4.753338  C 14.42692 3.819152 13.859717 2.970272 13.144722 2.255278  C 12.429728 1.540283 11.580848 0.97308 10.646662 0.586128  C 9.712477 0.199175 8.711155 -0 7.7 -0  C 6.688845 -0 5.687523 0.199175 4.753338 0.586128  C 3.819152 0.97308 2.970272 1.540283 2.255278 2.255278  C 1.540283 2.970272 0.97308 3.819152 0.586128 4.753338  C 0.199175 5.687523 -0 6.688845 -0 7.7  C -0 8.711155 0.199175 9.712477 0.586128 10.646662  C 0.97308 11.580848 1.540283 12.429728 2.255278 13.144722  C 2.970272 13.859717 3.819152 14.42692 4.753338 14.813872  C 5.687523 15.200825 6.688845 15.4 7.7 15.4  C 8.711155 15.4 9.712477 15.200825 10.646662 14.813872  C 11.580848 14.42692 12.429728 13.859717 13.144722 13.144722  C 13.859717 12.429728 14.42692 11.580848 14.813872 10.646662  C 15.200825 9.712477 15.4 8.711155 15.4 7.7  M 7.7 7.7  z " style="fill: #fefebb; stroke: #444443; stroke-width: 0.5; stroke-linejoin: miter" />
   </g>
   <g id="text_1">
    
    <g style="fill: #444443" transform="translate(0.066875 22.458031) scale(0.09 -0.09)">
     <defs>
      <path id="ArialMT-6e" d="M 422 0  L 422 3319  L 928 3319  L 928 2847  Q 1294 3394 1984 3394  Q 2284 3394 2536 3286  Q 2788 3178 2913 3003  Q 3038 2828 3088 2588  Q 3119 2431 3119 2041  L 3119 0  L 2556 0  L 2556 2019  Q 2556 2363 2490 2533  Q 2425 2703 2258 2804  Q 2091 2906 1866 2906  Q 1506 2906 1245 2678  Q 984 2450 984 1813  L 984 0  L 422 0  z " transform="scale(0.015625)" />
      <path id="ArialMT-3d" d="M 3381 2694  L 356 2694  L 356 3219  L 3381 3219  L 3381 2694  z M 3381 1303  L 356 1303  L 356 1828  L 3381 1828  L 3381 1303  z " transform="scale(0.015625)" />
      <path id="ArialMT-35" d="M 266 1200  L 856 1250  Q 922 819 1161 601  Q 1400 384 1738 384  Q 2144 384 2425 690  Q 2706 997 2706 1503  Q 2706 1984 2436 2262  Q 2166 2541 1728 2541  Q 1456 2541 1237 2417  Q 1019 2294 894 2097  L 366 2166  L 809 4519  L 3088 4519  L 3088 3981  L 1259 3981  L 1013 2750  Q 1425 3038 1878 3038  Q 2478 3038 2890 2622  Q 3303 2206 3303 1553  Q 3303 931 2941 478  Q 2500 -78 1738 -78  Q 1113 -78 717 272  Q 322 622 266 1200  z " transform="scale(0.015625)" />
     </defs>
     <use xlink:href="#ArialMT-6e" />
     <use xlink:href="#ArialMT-3d" x="55.615234" />
     <use xlink:href="#ArialMT-35" x="114.013672" />
    </g>
    
    <g style="fill: #444443" transform="translate(2.695156 31.977219) scale(0.09 -0.09)">
     <defs>
      <path id="ArialMT-6f" d="M 213 1659  Q 213 2581 725 3025  Q 1153 3394 1769 3394  Q 2453 3394 2887 2945  Q 3322 2497 3322 1706  Q 3322 1066 3130 698  Q 2938 331 2570 128  Q 2203 -75 1769 -75  Q 1072 -75 642 372  Q 213 819 213 1659  z M 791 1659  Q 791 1022 1069 705  Q 1347 388 1769 388  Q 2188 388 2466 706  Q 2744 1025 2744 1678  Q 2744 2294 2464 2611  Q 2184 2928 1769 2928  Q 1347 2928 1069 2612  Q 791 2297 791 1659  z " transform="scale(0.015625)" />
     </defs>
     <use xlink:href="#ArialMT-6e" />
     <use xlink:href="#ArialMT-6f" x="55.615234" />
    </g>
   </g>
  </g>
 </g>
</svg></g>

<g id="edge8" class="edge">
<title>node10-&gt;leaf12</title>
<path fill="none" stroke="#444443" stroke-width="0.3" d="M156.81,-276.8C171.3,-274.4 184.83,-272.17 194.18,-270.62" />
<polygon fill="#444443" stroke="#444443" stroke-width="0.3" points="194.45,-271.99 198.17,-269.96 194,-269.23 194.45,-271.99" />
</g>




<g id="node10" class="node">
<title>leaf9</title>
<polygon fill="none" stroke="#444443" stroke-width="0" points="91.5,-361.5 66.5,-361.5 66.5,-323.5 91.5,-323.5 91.5,-361.5" />
<svg width="17px" height="30px" viewBox="0 0 22.792 41.453649" version="1.1" preserveAspectRatio="xMinYMin meet" x="71" y="-357.5">
 <metadata>
  <rdf:RDF>
   <ns2:Work>
    <dc:type rdf:resource="http://purl.org/dc/dcmitype/StillImage" />
    <dc:date>2024-07-15T17:18:33.854527</dc:date>
    <dc:format>image/svg+xml</dc:format>
    <dc:creator>
     <ns2:Agent>
      <dc:title>Matplotlib v3.8.4, https://matplotlib.org/</dc:title>
     </ns2:Agent>
    </dc:creator>
   </ns2:Work>
  </rdf:RDF>
 </metadata>
 <defs>
  <style type="text/css">*{stroke-linejoin: round; stroke-linecap: butt}</style>
 </defs>
 <g id="figure_1">
  <g id="patch_1">
   <path d="M 0 41.453649  L 22.792 41.453649  L 22.792 0  L 0 0  z " style="fill: #ffffff" />
  </g>
  <g id="axes_1">
   <g id="patch_2">
    <path d="M 22.792 11.396  C 22.792 9.899491 22.49722 8.417534 21.924531 7.03494  C 21.351842 5.652346 20.512381 4.396003 19.454189 3.337811  C 18.395997 2.279619 17.139654 1.440158 15.75706 0.867469  C 14.374466 0.29478 12.892509 0 11.396 0  C 9.899491 0 8.417534 0.29478 7.03494 0.867469  C 5.652346 1.440158 4.396003 2.279619 3.337811 3.337811  C 2.279619 4.396003 1.440158 5.652346 0.867469 7.03494  C 0.29478 8.417534 -0 9.899491 -0 11.396  C -0 12.892509 0.29478 14.374466 0.867469 15.75706  C 1.440158 17.139654 2.279619 18.395997 3.337811 19.454189  C 4.396003 20.512381 5.652346 21.351842 7.03494 21.924531  C 8.417534 22.49722 9.899491 22.792 11.396 22.792  C 12.892509 22.792 14.374466 22.49722 15.75706 21.924531  C 17.139654 21.351842 18.395997 20.512381 19.454189 19.454189  C 20.512381 18.395997 21.351842 17.139654 21.924531 15.75706  C 22.49722 14.374466 22.792 12.892509 22.792 11.396  M 11.396 11.396  z " style="fill: #fefebb; stroke: #444443; stroke-width: 0.5; stroke-linejoin: miter" />
   </g>
   <g id="text_1">
    
    <g style="fill: #444443" transform="translate(1.592328 30.145711) scale(0.09 -0.09)">
     <defs>
      <path id="ArialMT-6e" d="M 422 0  L 422 3319  L 928 3319  L 928 2847  Q 1294 3394 1984 3394  Q 2284 3394 2536 3286  Q 2788 3178 2913 3003  Q 3038 2828 3088 2588  Q 3119 2431 3119 2041  L 3119 0  L 2556 0  L 2556 2019  Q 2556 2363 2490 2533  Q 2425 2703 2258 2804  Q 2091 2906 1866 2906  Q 1506 2906 1245 2678  Q 984 2450 984 1813  L 984 0  L 422 0  z " transform="scale(0.015625)" />
      <path id="ArialMT-3d" d="M 3381 2694  L 356 2694  L 356 3219  L 3381 3219  L 3381 2694  z M 3381 1303  L 356 1303  L 356 1828  L 3381 1828  L 3381 1303  z " transform="scale(0.015625)" />
      <path id="ArialMT-31" d="M 2384 0  L 1822 0  L 1822 3584  Q 1619 3391 1289 3197  Q 959 3003 697 2906  L 697 3450  Q 1169 3672 1522 3987  Q 1875 4303 2022 4600  L 2384 4600  L 2384 0  z " transform="scale(0.015625)" />
     </defs>
     <use xlink:href="#ArialMT-6e" />
     <use xlink:href="#ArialMT-3d" x="55.615234" />
     <use xlink:href="#ArialMT-31" x="114.013672" />
     <use xlink:href="#ArialMT-31" x="162.253906" />
    </g>
    
    <g style="fill: #444443" transform="translate(6.391156 39.664899) scale(0.09 -0.09)">
     <defs>
      <path id="ArialMT-6f" d="M 213 1659  Q 213 2581 725 3025  Q 1153 3394 1769 3394  Q 2453 3394 2887 2945  Q 3322 2497 3322 1706  Q 3322 1066 3130 698  Q 2938 331 2570 128  Q 2203 -75 1769 -75  Q 1072 -75 642 372  Q 213 819 213 1659  z M 791 1659  Q 791 1022 1069 705  Q 1347 388 1769 388  Q 2188 388 2466 706  Q 2744 1025 2744 1678  Q 2744 2294 2464 2611  Q 2184 2928 1769 2928  Q 1347 2928 1069 2612  Q 791 2297 791 1659  z " transform="scale(0.015625)" />
     </defs>
     <use xlink:href="#ArialMT-6e" />
     <use xlink:href="#ArialMT-6f" x="55.615234" />
    </g>
   </g>
  </g>
 </g>
</svg></g>

<g id="node11" class="node">
<title>legend</title>
<polygon fill="none" stroke="black" stroke-width="0" points="104.5,-416.5 53.5,-416.5 53.5,-368.5 104.5,-368.5 104.5,-416.5" />
<svg width="47px" height="44px" viewBox="0 0 63.239062 58.539062" version="1.1" preserveAspectRatio="xMinYMin meet" x="56" y="-414.5">
 <metadata>
  <rdf:RDF>
   <ns2:Work>
    <dc:type rdf:resource="http://purl.org/dc/dcmitype/StillImage" />
    <dc:date>2024-07-15T17:18:33.419125</dc:date>
    <dc:format>image/svg+xml</dc:format>
    <dc:creator>
     <ns2:Agent>
      <dc:title>Matplotlib v3.8.4, https://matplotlib.org/</dc:title>
     </ns2:Agent>
    </dc:creator>
   </ns2:Work>
  </rdf:RDF>
 </metadata>
 <defs>
  <style type="text/css">*{stroke-linejoin: round; stroke-linecap: butt}</style>
 </defs>
 <g id="figure_1">
  <g id="patch_1">
   <path d="M 0 58.539062  L 63.239062 58.539062  L 63.239062 0  L 0 0  z " style="fill: #ffffff" />
  </g>
  <g id="axes_1">
   <g id="legend_1">
    <g id="patch_2">
     <path d="M 2 58.539062  L 56.239063 58.539062  Q 58.239063 58.539062 58.239063 56.539062  L 58.239063 7  Q 58.239063 5 56.239063 5  L 2 5  Q 0 5 0 7  L 0 56.539062  Q 0 58.539062 2 58.539062  z " style="fill: #ffffff; opacity: 0.8; stroke: #444443; stroke-width: 0.5; stroke-linejoin: miter" />
    </g>
    <g id="text_1">
     
     <g style="fill: #444443" transform="translate(8 20.157812) scale(0.1 -0.1)">
      <defs>
       <path id="Arial-BoldMT-53" d="M 231 1491  L 1131 1578  Q 1213 1125 1461 912  Q 1709 700 2131 700  Q 2578 700 2804 889  Q 3031 1078 3031 1331  Q 3031 1494 2936 1608  Q 2841 1722 2603 1806  Q 2441 1863 1863 2006  Q 1119 2191 819 2459  Q 397 2838 397 3381  Q 397 3731 595 4036  Q 794 4341 1167 4500  Q 1541 4659 2069 4659  Q 2931 4659 3367 4281  Q 3803 3903 3825 3272  L 2900 3231  Q 2841 3584 2645 3739  Q 2450 3894 2059 3894  Q 1656 3894 1428 3728  Q 1281 3622 1281 3444  Q 1281 3281 1419 3166  Q 1594 3019 2269 2859  Q 2944 2700 3267 2529  Q 3591 2359 3773 2064  Q 3956 1769 3956 1334  Q 3956 941 3737 597  Q 3519 253 3119 86  Q 2719 -81 2122 -81  Q 1253 -81 787 320  Q 322 722 231 1491  z " transform="scale(0.015625)" />
       <path id="Arial-BoldMT-75" d="M 2644 0  L 2644 497  Q 2463 231 2167 78  Q 1872 -75 1544 -75  Q 1209 -75 943 72  Q 678 219 559 484  Q 441 750 441 1219  L 441 3319  L 1319 3319  L 1319 1794  Q 1319 1094 1367 936  Q 1416 778 1544 686  Q 1672 594 1869 594  Q 2094 594 2272 717  Q 2450 841 2515 1023  Q 2581 1206 2581 1919  L 2581 3319  L 3459 3319  L 3459 0  L 2644 0  z " transform="scale(0.015625)" />
       <path id="Arial-BoldMT-72" d="M 1300 0  L 422 0  L 422 3319  L 1238 3319  L 1238 2847  Q 1447 3181 1614 3287  Q 1781 3394 1994 3394  Q 2294 3394 2572 3228  L 2300 2463  Q 2078 2606 1888 2606  Q 1703 2606 1575 2504  Q 1447 2403 1373 2137  Q 1300 1872 1300 1025  L 1300 0  z " transform="scale(0.015625)" />
       <path id="Arial-BoldMT-76" d="M 1372 0  L 34 3319  L 956 3319  L 1581 1625  L 1763 1059  Q 1834 1275 1853 1344  Q 1897 1484 1947 1625  L 2578 3319  L 3481 3319  L 2163 0  L 1372 0  z " transform="scale(0.015625)" />
       <path id="Arial-BoldMT-69" d="M 459 3769  L 459 4581  L 1338 4581  L 1338 3769  L 459 3769  z M 459 0  L 459 3319  L 1338 3319  L 1338 0  L 459 0  z " transform="scale(0.015625)" />
       <path id="Arial-BoldMT-65" d="M 2381 1056  L 3256 909  Q 3088 428 2723 176  Q 2359 -75 1813 -75  Q 947 -75 531 491  Q 203 944 203 1634  Q 203 2459 634 2926  Q 1066 3394 1725 3394  Q 2466 3394 2894 2905  Q 3322 2416 3303 1406  L 1103 1406  Q 1113 1016 1316 798  Q 1519 581 1822 581  Q 2028 581 2168 693  Q 2309 806 2381 1056  z M 2431 1944  Q 2422 2325 2234 2523  Q 2047 2722 1778 2722  Q 1491 2722 1303 2513  Q 1116 2303 1119 1944  L 2431 1944  z " transform="scale(0.015625)" />
       <path id="Arial-BoldMT-64" d="M 3503 0  L 2688 0  L 2688 488  Q 2484 203 2207 64  Q 1931 -75 1650 -75  Q 1078 -75 670 386  Q 263 847 263 1672  Q 263 2516 659 2955  Q 1056 3394 1663 3394  Q 2219 3394 2625 2931  L 2625 4581  L 3503 4581  L 3503 0  z M 1159 1731  Q 1159 1200 1306 963  Q 1519 619 1900 619  Q 2203 619 2415 876  Q 2628 1134 2628 1647  Q 2628 2219 2422 2470  Q 2216 2722 1894 2722  Q 1581 2722 1370 2473  Q 1159 2225 1159 1731  z " transform="scale(0.015625)" />
      </defs>
      <use xlink:href="#Arial-BoldMT-53" />
      <use xlink:href="#Arial-BoldMT-75" x="66.699219" />
      <use xlink:href="#Arial-BoldMT-72" x="127.783203" />
      <use xlink:href="#Arial-BoldMT-76" x="166.699219" />
      <use xlink:href="#Arial-BoldMT-69" x="222.314453" />
      <use xlink:href="#Arial-BoldMT-76" x="250.097656" />
      <use xlink:href="#Arial-BoldMT-65" x="305.712891" />
      <use xlink:href="#Arial-BoldMT-64" x="361.328125" />
     </g>
    </g>
    <g id="patch_3">
     <path d="M 9.589063 34.289062  L 29.589063 34.289062  L 29.589063 27.289062  L 9.589063 27.289062  z " style="fill: #fefebb; stroke: #444443; stroke-width: 0.4; stroke-linejoin: miter" />
    </g>
    <g id="text_2">
     
     <g style="fill: #444443" transform="translate(33.089062 34.289062) scale(0.1 -0.1)">
      <defs>
       <path id="ArialMT-6e" d="M 422 0  L 422 3319  L 928 3319  L 928 2847  Q 1294 3394 1984 3394  Q 2284 3394 2536 3286  Q 2788 3178 2913 3003  Q 3038 2828 3088 2588  Q 3119 2431 3119 2041  L 3119 0  L 2556 0  L 2556 2019  Q 2556 2363 2490 2533  Q 2425 2703 2258 2804  Q 2091 2906 1866 2906  Q 1506 2906 1245 2678  Q 984 2450 984 1813  L 984 0  L 422 0  z " transform="scale(0.015625)" />
       <path id="ArialMT-6f" d="M 213 1659  Q 213 2581 725 3025  Q 1153 3394 1769 3394  Q 2453 3394 2887 2945  Q 3322 2497 3322 1706  Q 3322 1066 3130 698  Q 2938 331 2570 128  Q 2203 -75 1769 -75  Q 1072 -75 642 372  Q 213 819 213 1659  z M 791 1659  Q 791 1022 1069 705  Q 1347 388 1769 388  Q 2188 388 2466 706  Q 2744 1025 2744 1678  Q 2744 2294 2464 2611  Q 2184 2928 1769 2928  Q 1347 2928 1069 2612  Q 791 2297 791 1659  z " transform="scale(0.015625)" />
      </defs>
      <use xlink:href="#ArialMT-6e" />
      <use xlink:href="#ArialMT-6f" x="55.615234" />
     </g>
    </g>
    <g id="patch_4">
     <path d="M 9.589063 48.434375  L 29.589063 48.434375  L 29.589063 41.434375  L 9.589063 41.434375  z " style="fill: #a1dab4; stroke: #444443; stroke-width: 0.4; stroke-linejoin: miter" />
    </g>
    <g id="text_3">
     
     <g style="fill: #444443" transform="translate(33.089062 48.434375) scale(0.1 -0.1)">
      <defs>
       <path id="ArialMT-79" d="M 397 -1278  L 334 -750  Q 519 -800 656 -800  Q 844 -800 956 -737  Q 1069 -675 1141 -563  Q 1194 -478 1313 -144  Q 1328 -97 1363 -6  L 103 3319  L 709 3319  L 1400 1397  Q 1534 1031 1641 628  Q 1738 1016 1872 1384  L 2581 3319  L 3144 3319  L 1881 -56  Q 1678 -603 1566 -809  Q 1416 -1088 1222 -1217  Q 1028 -1347 759 -1347  Q 597 -1347 397 -1278  z " transform="scale(0.015625)" />
       <path id="ArialMT-65" d="M 2694 1069  L 3275 997  Q 3138 488 2766 206  Q 2394 -75 1816 -75  Q 1088 -75 661 373  Q 234 822 234 1631  Q 234 2469 665 2931  Q 1097 3394 1784 3394  Q 2450 3394 2872 2941  Q 3294 2488 3294 1666  Q 3294 1616 3291 1516  L 816 1516  Q 847 969 1125 678  Q 1403 388 1819 388  Q 2128 388 2347 550  Q 2566 713 2694 1069  z M 847 1978  L 2700 1978  Q 2663 2397 2488 2606  Q 2219 2931 1791 2931  Q 1403 2931 1139 2672  Q 875 2413 847 1978  z " transform="scale(0.015625)" />
       <path id="ArialMT-73" d="M 197 991  L 753 1078  Q 800 744 1014 566  Q 1228 388 1613 388  Q 2000 388 2187 545  Q 2375 703 2375 916  Q 2375 1106 2209 1216  Q 2094 1291 1634 1406  Q 1016 1563 777 1677  Q 538 1791 414 1992  Q 291 2194 291 2438  Q 291 2659 392 2848  Q 494 3038 669 3163  Q 800 3259 1026 3326  Q 1253 3394 1513 3394  Q 1903 3394 2198 3281  Q 2494 3169 2634 2976  Q 2775 2784 2828 2463  L 2278 2388  Q 2241 2644 2061 2787  Q 1881 2931 1553 2931  Q 1166 2931 1000 2803  Q 834 2675 834 2503  Q 834 2394 903 2306  Q 972 2216 1119 2156  Q 1203 2125 1616 2013  Q 2213 1853 2448 1751  Q 2684 1650 2818 1456  Q 2953 1263 2953 975  Q 2953 694 2789 445  Q 2625 197 2315 61  Q 2006 -75 1616 -75  Q 969 -75 630 194  Q 291 463 197 991  z " transform="scale(0.015625)" />
      </defs>
      <use xlink:href="#ArialMT-79" />
      <use xlink:href="#ArialMT-65" x="50" />
      <use xlink:href="#ArialMT-73" x="105.615234" />
     </g>
    </g>
   </g>
  </g>
 </g>
</svg></g>
</g>
</svg>